<?xml version="1.0" encoding="iso-8859-1"?>
<!-- Generator: Adobe Illustrator 19.0.0, SVG Export Plug-In . SVG Version: 6.00 Build 0)  -->
<svg version="1.1" id="Capa_1" xmlns="http://www.w3.org/2000/svg" xmlns:xlink="http://www.w3.org/1999/xlink" x="0px" y="0px"
	 viewBox="0 0 463 463" style="enable-background:new 0 0 463 463;" xml:space="preserve">
<g>
	<path d="M183.5,184c-4.143,0-7.5,3.358-7.5,7.5v8c0,4.142,3.357,7.5,7.5,7.5s7.5-3.358,7.5-7.5v-8
		C191,187.358,187.643,184,183.5,184z"/>
	<path d="M279.5,207c4.143,0,7.5-3.358,7.5-7.5v-8c0-4.142-3.357-7.5-7.5-7.5s-7.5,3.358-7.5,7.5v8
		C272,203.642,275.357,207,279.5,207z"/>
	<path d="M212.092,249.542c-3.29-2.517-7.997-1.888-10.514,1.402c-2.516,3.29-1.888,7.997,1.402,10.513
		c8.047,6.154,18.176,9.542,28.52,9.542s20.473-3.389,28.52-9.542c3.29-2.516,3.918-7.223,1.402-10.513
		c-2.517-3.29-7.224-3.919-10.514-1.402C245.462,253.707,238.569,256,231.5,256S217.538,253.707,212.092,249.542z"/>
	<path d="M454.764,117.633c-0.852-3.315-3.841-5.633-7.264-5.633h-97.936l-11.889-55.481c-3.417-15.944-12.282-30.371-24.963-40.622
		S284.067,0,267.762,0h-72.523c-16.306,0-32.27,5.646-44.95,15.897s-21.546,24.678-24.963,40.622L113.436,112H15.5
		c-3.423,0-6.412,2.318-7.264,5.633c-0.853,3.315,0.648,6.787,3.647,8.438c24.745,13.62,53.677,22.969,82.647,29.372
		C90.267,170.481,80,209.783,80,239.5c0,16.09,15.494,30.434,46.053,42.632c20.093,8.021,39.847,12.447,42.306,12.983
		c2.478,2.077,5.024,4.042,7.641,5.875v10.51c0,13.509-10.99,24.5-24.5,24.5c-1.279,0-2.562,0.051-3.842,0.134
		c-0.759-0.955-1.63-1.833-2.619-2.605c-3.787-2.958-8.629-3.987-13.299-2.82l-16,4c-5.859,1.465-10.208,6.136-11.401,11.863
		l-15.279,4.117C64.885,357.204,48,379.24,48,404.278V439.5c0,12.958,10.542,23.5,23.5,23.5h320c12.958,0,23.5-10.542,23.5-23.5
		v-35.222c0-25.038-16.885-47.074-41.061-53.588l-15.279-4.117c-1.193-5.727-5.542-10.398-11.401-11.863l-16.001-4
		c-4.66-1.164-9.511-0.137-13.298,2.82c-0.988,0.772-1.86,1.65-2.619,2.605c-1.281-0.083-2.563-0.134-3.842-0.134
		c-13.51,0-24.5-10.991-24.5-24.5v-10.51c2.562-1.794,5.056-3.714,7.485-5.742c0.333,0.046,0.667,0.087,1.009,0.087
		c0.519,0,1.046-0.054,1.574-0.167c0.869-0.186,21.53-4.646,42.547-13.036c30.559-12.199,46.053-26.542,46.053-42.632
		c0-30.095-10.529-70.017-14.69-84.617c28.129-6.384,56.109-15.586,80.139-28.813C454.115,124.42,455.616,120.948,454.764,117.633z
		 M139.993,59.662C145.538,33.783,168.772,15,195.238,15h72.523c26.466,0,49.7,18.783,55.245,44.662L334.222,112H128.778
		L139.993,59.662z M95,239.5c0-28.26,10.446-67.57,14.28-81.043c4.121,0.777,8.228,1.498,12.31,2.167
		C120.54,168.148,120,175.817,120,183.5c0,34.887,10.908,66.734,28.793,90.777c-5.452-1.715-11.41-3.766-17.337-6.138
		C108.288,258.867,95,248.428,95,239.5z M326.576,162.852c0.94,6.792,1.424,13.714,1.424,20.648c0,66.444-43.29,120.5-96.5,120.5
		S135,249.944,135,183.5c0-6.938,0.483-13.859,1.423-20.648c37.73,5.169,71.866,6.151,92.271,6.151c0.498,0,0.993,0,1.476-0.001
		L231.5,169l1.33,0.002c0.485,0.001,0.975,0.001,1.476,0.001C254.713,169.003,288.848,168.02,326.576,162.852z M312,369.965V448H151
		v-78.035C173.043,388.572,201.565,399,231.5,399C261.434,399,289.956,388.572,312,369.965z M119.379,349.261l15.999-4
		c0.073-0.019,0.239-0.059,0.43,0.091c0.192,0.15,0.192,0.321,0.192,0.394V448h-17v-98.254
		C119,349.516,119.156,349.316,119.379,349.261z M63,439.5v-35.222c0-18.271,12.321-34.351,29.963-39.105L104,362.199V448H71.5
		C66.813,448,63,444.187,63,439.5z M400,404.278V439.5c0,4.687-3.813,8.5-8.5,8.5H359v-85.801l11.037,2.974
		C387.679,369.927,400,386.007,400,404.278z M327.192,345.352c0.192-0.149,0.358-0.109,0.429-0.091l16,4
		c0.223,0.056,0.379,0.255,0.379,0.485V448h-17V345.746C327,345.673,327,345.502,327.192,345.352z M310.344,350.971
		C290.2,372.003,261.687,384,231.5,384c-30.188,0-58.699-11.996-78.844-33.029C173.902,350.355,191,332.893,191,311.5v-1.755
		c12.56,5.971,26.22,9.255,40.5,9.255s27.94-3.283,40.5-9.255v1.755C272,332.893,289.098,350.355,310.344,350.971z M370.667,239.5
		c0,13.695-29.321,27.578-57.39,36.002C331.712,251.321,343,218.985,343,183.5c0-7.679-0.54-15.349-1.59-22.877
		c4.917-0.806,9.87-1.687,14.841-2.649C359.966,170.963,370.667,210.865,370.667,239.5z M234.323,154.003
		c-0.492,0-0.981,0-1.458-0.001L231.5,154l-1.365,0.002c-35.025,0.055-115.109-2.705-180.027-27.002h362.785
		C348.857,150.966,270.037,154.003,234.323,154.003z"/>
</g>
<g>
</g>
<g>
</g>
<g>
</g>
<g>
</g>
<g>
</g>
<g>
</g>
<g>
</g>
<g>
</g>
<g>
</g>
<g>
</g>
<g>
</g>
<g>
</g>
<g>
</g>
<g>
</g>
<g>
</g>
</svg>
