<?xml version="1.0" encoding="iso-8859-1"?>
<!-- Generator: Adobe Illustrator 19.0.0, SVG Export Plug-In . SVG Version: 6.00 Build 0)  -->
<svg version="1.1" id="Capa_1" xmlns="http://www.w3.org/2000/svg" xmlns:xlink="http://www.w3.org/1999/xlink" x="0px" y="0px"
	 viewBox="0 0 512 512" style="enable-background:new 0 0 512 512;" xml:space="preserve">
<g>
	<g>
		<path d="M474.015,446.961h-66.826v-22.553c10.209-0.77,27.745-3.945,39.948-16.148c17.787-17.788,16.397-46.915,16.328-48.146
			l-0.369-6.706l-6.706-0.37c-1.23-0.07-30.36-1.458-48.147,16.329c-3.71,3.711-6.577,7.918-8.805,12.259
			c-2.228-4.341-5.094-8.548-8.805-12.259c-17.787-17.786-46.917-16.397-48.147-16.329l-6.706,0.37l-0.369,6.706
			c-0.068,1.231-1.459,30.358,16.328,48.146c12.407,12.407,30.322,15.481,40.449,16.184v22.517H267.179v-22.553
			c10.21-0.77,27.745-3.945,39.948-16.148c17.787-17.788,16.397-46.915,16.328-48.146l-0.369-6.706l-6.706-0.37
			c-1.229-0.07-30.36-1.458-48.147,16.329c-3.71,3.711-6.577,7.918-8.805,12.259c-2.227-4.341-5.094-8.548-8.805-12.259
			c-17.787-17.786-46.917-16.397-48.147-16.329l-6.706,0.37l-0.369,6.706c-0.068,1.231-1.459,30.358,16.328,48.146
			c12.407,12.407,30.322,15.481,40.449,16.184v22.517H127.168v-22.553c10.21-0.77,27.745-3.945,39.948-16.148
			c17.787-17.788,16.397-46.915,16.328-48.146l-0.369-6.706l-6.706-0.37c-1.231-0.07-30.36-1.458-48.147,16.329
			c-3.71,3.711-6.577,7.918-8.805,12.259c-2.227-4.341-5.094-8.548-8.805-12.259c-17.787-17.786-46.917-16.397-48.147-16.329
			l-6.706,0.37l-0.369,6.706c-0.068,1.231-1.459,30.358,16.328,48.146c12.407,12.407,30.322,15.481,40.449,16.184v22.517H37.985
			c-20.679,0-37.503,16.823-37.503,37.503V512h511.035v-27.537C511.517,463.784,494.694,446.961,474.015,446.961z M362.347,397.652
			c-8.442-8.442-10.968-21.31-11.697-29.356c8.064,0.747,20.985,3.287,29.375,11.677c8.441,8.441,10.967,21.305,11.697,29.356
			C383.658,408.582,370.737,406.042,362.347,397.652z M222.338,397.652c-8.442-8.442-10.968-21.31-11.697-29.356
			c8.064,0.747,20.985,3.287,29.375,11.677c8.441,8.441,10.967,21.305,11.697,29.356
			C243.648,408.582,230.727,406.042,222.338,397.652z M82.328,397.652c-8.442-8.442-10.968-21.31-11.697-29.356
			c8.064,0.747,20.985,3.287,29.375,11.677c8.441,8.441,10.967,21.305,11.697,29.356C103.639,408.582,90.718,406.042,82.328,397.652
			z M418.851,379.974c8.442-8.442,21.31-10.967,29.356-11.697c-0.747,8.065-3.287,20.985-11.678,29.376
			c-8.44,8.441-21.305,10.966-29.356,11.696C407.92,401.284,410.461,388.364,418.851,379.974z M278.842,379.974
			c8.442-8.442,21.31-10.967,29.356-11.697c-0.747,8.065-3.287,20.985-11.678,29.376c-8.44,8.441-21.305,10.966-29.356,11.696
			C267.911,401.284,270.451,388.364,278.842,379.974z M138.832,379.974c8.442-8.442,21.31-10.967,29.356-11.697
			c-0.747,8.065-3.287,20.985-11.678,29.376c-8.44,8.441-21.305,10.966-29.356,11.696
			C127.901,401.284,130.441,388.364,138.832,379.974z M496.517,496.999H15.484v-12.536c0-12.408,10.095-22.502,22.502-22.502h436.03
			c12.407,0,22.502,10.094,22.502,22.502V496.999z"/>
	</g>
</g>
<g>
	<g>
		<path d="M472.394,119.159c10.481-12.888,16.183-28.846,16.183-45.685c0-19.385-7.549-37.611-21.256-51.318
			c-29.544-29.543-77.61-29.541-107.153,0c-19.977,19.977-27.137,49.774-18.612,76.599l-48.734,48.735l46.25,46.25l-55.134,4.807
			l3.345,41.622l104.191,5.972l15.2,15.2l103.951-103.952L472.394,119.159z M370.776,32.763c23.694-23.693,62.245-23.692,85.938,0
			c10.875,10.875,16.863,25.333,16.863,40.711c-0.001,12.824-4.178,25-11.869,35l-64.935-64.935l-42.837,42.837
			C350.544,67.067,356.675,46.864,370.776,32.763z M314.035,147.491l82.738-82.738l12.022,12.022l-82.738,82.738L314.035,147.491z
			 M406.672,240.128l-8.636-8.635l-96.851-5.551l-1.104-13.744l72.352-6.308l-35.77-35.769l82.738-82.738l70.008,70.009
			L406.672,240.128z"/>
	</g>
</g>
<g>
	<g>
		<path d="M230.758,240.416l2.625,14.769c4.491-0.798,9.072-1.203,13.616-1.203v-15.001
			C241.578,238.981,236.113,239.463,230.758,240.416z"/>
	</g>
</g>
<g>
	<g>
		<path d="M210.916,246.367c-5.136,2.237-9.981,4.965-14.4,8.111l8.698,12.222c3.573-2.543,7.508-4.756,11.693-6.579
			L210.916,246.367z"/>
	</g>
</g>
<g>
	<g>
		<path d="M166.243,303.043c-0.966,5.103-1.539,10.51-1.7,16.067l14.995,0.435c0.138-4.769,0.624-9.382,1.444-13.71L166.243,303.043
			z"/>
	</g>
</g>
<g>
	<g>
		<path d="M181.258,269.02c-3.394,4.336-6.32,9.114-8.699,14.198l13.589,6.355c1.898-4.059,4.228-7.864,6.924-11.309L181.258,269.02
			z"/>
	</g>
</g>
<g>
	<g>
		<rect x="253.868" y="202.984" width="14.141" height="15.001"/>
	</g>
</g>
<g>
	<g>
		<path d="M199.531,205.282c-5.269,1.064-10.477,2.512-15.478,4.305l5.063,14.121c4.321-1.548,8.825-2.801,13.384-3.722
			L199.531,205.282z"/>
	</g>
</g>
<g>
	<g>
		<path d="M118.4,271.883c-2.158,4.831-4.032,9.855-5.568,14.932l14.358,4.345c1.353-4.475,3.003-8.902,4.906-13.157L118.4,271.883z
			"/>
	</g>
</g>
<g>
	<g>
		<path d="M222.998,202.979c-1.119,0-2.232,0.015-3.338,0.045l0.402,14.996c0.973-0.027,1.952-0.04,2.936-0.04h11.864v-15.001
			H222.998z"/>
	</g>
</g>
<g>
	<g>
		<path d="M108.554,306.545c-0.706,5.299-1.063,10.663-1.063,15.942h15.001c-0.001-4.619,0.313-9.317,0.932-13.962L108.554,306.545z
			"/>
	</g>
</g>
<g>
	<g>
		<path d="M165.611,218.223c-4.59,2.698-9.04,5.772-13.226,9.139l9.401,11.69c3.619-2.909,7.465-5.566,11.428-7.896L165.611,218.223
			z"/>
	</g>
</g>
<g>
	<g>
		<path d="M137.769,241.435c-3.471,3.984-6.723,8.269-9.667,12.732l12.524,8.259c2.577-3.908,5.422-7.655,8.455-11.138
			L137.769,241.435z"/>
	</g>
</g>
<g>
	<g>
		<g>
			
				<rect x="362.046" y="163.681" transform="matrix(-0.7071 -0.7071 0.7071 -0.7071 509.8301 553.5272)" width="15.001" height="15"/>
			<rect x="383.261" y="184.895" transform="matrix(0.7071 -0.7071 0.7071 0.7071 -21.5993 332.6414)" width="15.001" height="15"/>
		</g>
	</g>
</g>
<g>
	<g>
		<polygon points="441.677,130.873 431.069,141.48 446.98,157.391 431.069,173.302 441.677,183.909 468.195,157.391 		"/>
	</g>
</g>
<g>
	<g>
		<rect x="59.987" y="474.992" width="20.001" height="15.001"/>
	</g>
</g>
<g>
	<g>
		<rect x="133.99" y="474.992" width="54.004" height="15.001"/>
	</g>
</g>
<g>
	<g>
		<rect x="242.997" y="474.992" width="21.001" height="15.001"/>
	</g>
</g>
<g>
	<g>
		<rect x="296.001" y="474.992" width="102.007" height="15.001"/>
	</g>
</g>
<g>
	<g>
		<rect x="432.01" y="474.992" width="35.002" height="15.001"/>
	</g>
</g>
<g>
</g>
<g>
</g>
<g>
</g>
<g>
</g>
<g>
</g>
<g>
</g>
<g>
</g>
<g>
</g>
<g>
</g>
<g>
</g>
<g>
</g>
<g>
</g>
<g>
</g>
<g>
</g>
<g>
</g>
</svg>
