<?xml version="1.0" encoding="iso-8859-1"?>
<!-- Generator: Adobe Illustrator 19.0.0, SVG Export Plug-In . SVG Version: 6.00 Build 0)  -->
<svg version="1.1" id="Capa_1" xmlns="http://www.w3.org/2000/svg" xmlns:xlink="http://www.w3.org/1999/xlink" x="0px" y="0px"
	 viewBox="0 0 463 463" style="enable-background:new 0 0 463 463;" xml:space="preserve">
<path d="M460.804,218.765l-56.568-56.568c-2.929-2.929-7.678-2.929-10.606,0l-4.889,4.888c-11.419,11.421-14.362,28.15-8.845,42.316
	l-101.121,86.061c-0.403-1.834-1.335-3.47-2.631-4.74c1.821-3.336,2.857-7.16,2.857-11.221V177.142c4.899-4.31,8-10.619,8-17.641
	c0-12.958-10.542-23.5-23.5-23.5h-72.502V71.5c0-12.958-10.542-23.5-23.5-23.5s-23.5,10.542-23.5,23.5V136H71.5
	C58.542,136,48,146.542,48,159.5c0,7.023,3.101,13.332,8,17.641V192H39.5C17.72,192,0,209.72,0,231.5v16
	C0,278.103,24.897,303,55.5,303H56v8.5c0,6.177,2.399,11.801,6.31,16c-3.911,4.199-6.31,9.823-6.31,16v14
	c0,2.654,1.097,5.054,2.857,6.779C57.036,367.616,56,371.439,56,375.5v16c0,12.958,10.542,23.5,23.5,23.5h176
	c12.958,0,23.5-10.542,23.5-23.5v-5.039l133.977-143.212c0.083-0.088,0.154-0.183,0.231-0.274c4.635,1.868,9.63,2.853,14.777,2.853
	c10.551,0,20.47-4.109,27.931-11.569l4.888-4.888C463.732,226.443,463.732,221.694,460.804,218.765z M71,343.5
	c0-4.687,3.813-8.5,8.5-8.5h176c4.687,0,8.5,3.813,8.5,8.5s-3.813,8.5-8.5,8.5h-176C74.813,352,71,348.187,71,343.5z M71,311.5
	c0-4.687,3.813-8.5,8.5-8.5h176c4.687,0,8.5,3.813,8.5,8.5s-3.813,8.5-8.5,8.5h-176C74.813,320,71,316.187,71,311.5z M263.5,151
	c4.687,0,8.5,3.813,8.5,8.5s-3.813,8.5-8.5,8.5h-72.502v-17H263.5z M167.498,63c4.687,0,8.5,3.813,8.5,8.5v103.981
	c0,0.007-0.001,0.013-0.001,0.019c0,0.003,0,0.006,0,0.01c-0.005,4.683-3.816,8.49-8.5,8.49c-4.687,0-8.5-3.813-8.5-8.5v-31.961
	c0-0.013,0.002-0.026,0.002-0.039s-0.002-0.026-0.002-0.039V71.5C158.998,66.813,162.812,63,167.498,63z M71.5,151h72.498v17H71.5
	c-4.687,0-8.5-3.813-8.5-8.5S66.813,151,71.5,151z M71.5,183h73.732c3.138,9.29,11.93,16,22.266,16s19.128-6.71,22.266-16H263.5
	c0.168,0,0.333-0.009,0.5-0.013V279.5c0,4.687-3.813,8.5-8.5,8.5h-176c-4.687,0-8.5-3.813-8.5-8.5v-96.513
	C71.167,182.991,71.332,183,71.5,183z M15,247.5v-16c0-13.509,10.99-24.5,24.5-24.5H56v72.5c0,2.997,0.57,5.862,1.597,8.5H55.5
	C33.168,288,15,269.832,15,247.5z M264,391.5c0,4.687-3.813,8.5-8.5,8.5h-176c-4.687,0-8.5-3.813-8.5-8.5v-16
	c0-4.687,3.813-8.5,8.5-8.5h176c4.687,0,8.5,3.813,8.5,8.5V391.5z M277.184,366.446c-0.311-0.742-0.658-1.466-1.041-2.167
	c1.76-1.725,2.857-4.125,2.857-6.779v-14c0-6.177-2.399-11.801-6.31-16c3.109-3.339,5.262-7.578,6.013-12.281l109.314-93.034
	c0.241,0.254,0.474,0.512,0.723,0.761l11.314,11.314c0.137,0.137,0.281,0.265,0.419,0.399L277.184,366.446z M427.985,230.829
	c-6.545,0-12.697-2.548-17.324-7.176l-11.313-11.314c-9.414-9.414-9.551-24.645-0.411-34.228l45.952,45.952
	C440.313,228.431,434.333,230.829,427.985,230.829z"/>
<g>
</g>
<g>
</g>
<g>
</g>
<g>
</g>
<g>
</g>
<g>
</g>
<g>
</g>
<g>
</g>
<g>
</g>
<g>
</g>
<g>
</g>
<g>
</g>
<g>
</g>
<g>
</g>
<g>
</g>
</svg>
