<?xml version="1.0" encoding="iso-8859-1"?>
<!-- Generator: Adobe Illustrator 16.0.0, SVG Export Plug-In . SVG Version: 6.00 Build 0)  -->
<!DOCTYPE svg PUBLIC "-//W3C//DTD SVG 1.1//EN" "http://www.w3.org/Graphics/SVG/1.1/DTD/svg11.dtd">
<svg version="1.1" id="Capa_1" xmlns="http://www.w3.org/2000/svg" xmlns:xlink="http://www.w3.org/1999/xlink" x="0px" y="0px"
	 width="45.387px" height="45.387px" viewBox="0 0 45.387 45.387" style="enable-background:new 0 0 45.387 45.387;"
	 xml:space="preserve">
<g>
	<g>
		<g>
			<path d="M30.118,33.352c1.771-0.29,3.099-0.79,4.089-1.161c0.231-0.089,0.447-0.169,0.65-0.239
				c-3.911-0.859-5.492-2.471-5.34-0.729C29.563,31.726,29.76,32.479,30.118,33.352z"/>
			<path d="M38.773,34.568c-0.043,0.497-0.175,1.106-0.395,1.783c3.396,0.238,6.522-0.625,6.838-0.729
				c-0.537-2.023-2.471-3.396-4.644-3.259c-0.864,0.055-1.675,0.056-2.43,0.019c0,0.001,0.001,0.001,0.001,0.001
				C38.894,33.199,38.804,34.229,38.773,34.568z"/>
			<path d="M37.964,37.465c-0.384,0.909-0.901,1.886-1.557,2.85c1.417,0.65,3.061,0.994,4.936,0.832
				c2.012-0.177,3.588-1.679,3.945-3.567C44.446,37.732,41.171,38.295,37.964,37.465z"/>
			<path d="M25.437,33.538c0.139,0,0.277,0.004,0.419,0.013c0.036,0.003,0.07,0.004,0.106,0.006l-1.214-2.822
				c-0.201-0.468-0.437-0.908-0.698-1.325L6.883,36.79c0.121,0.478,0.281,0.952,0.481,1.419l2.589,6.021
				c0.2,0.467,0.577,0.832,1.048,1.021c0.471,0.188,0.996,0.18,1.462-0.021l0.812-0.352c0.206-0.089,0.32-0.312,0.269-0.531
				l-0.619-2.64c-0.011-0.049,0.013-0.099,0.058-0.118c0.045-0.021,0.099-0.007,0.128,0.034l1.602,2.241
				c0.127,0.177,0.36,0.241,0.561,0.154l2.471-1.062c0.186-0.08,0.299-0.271,0.278-0.474l-0.196-1.952
				c-0.005-0.047,0.021-0.09,0.064-0.106c0.042-0.018,0.091-0.005,0.119,0.031l1.199,1.5c0.029,0.037,0.064,0.067,0.103,0.094
				c-0.295-0.834-0.421-1.742-0.339-2.68C19.265,36.046,22.043,33.538,25.437,33.538z"/>
			<path d="M6.63,33.646l15.313-6.585c-2.139-1.693-4.957-2.419-7.711-1.875L3.92,1.206C3.486,0.194,2.315-0.272,1.304,0.163
				C0.293,0.598-0.174,1.77,0.261,2.778L10.574,26.76C8.283,28.384,6.87,30.928,6.63,33.646z"/>
			<path d="M36.371,33.619c-1.019,0-3.907,1.964-9.241,1.964c-0.448,0-0.916-0.015-1.397-0.044c-0.1-0.007-0.196-0.01-0.295-0.01
				c-2.049,0-3.833,1.337-4.347,3.269c3.874,1.994,9.591-0.339,11.196-1.362c0.154-0.099,0.328-0.158,0.472-0.04
				c0.142,0.119,0.185,0.337,0.04,0.474c-0.753,0.705-5.016,5.014-11.778,2.885c0.358,1.891,1.935,3.392,3.944,3.566
				c0.312,0.026,0.618,0.041,0.919,0.041c7.211,0,10.703-7.639,10.907-9.966C36.838,33.831,36.706,33.619,36.371,33.619z"/>
		</g>
	</g>
</g>
<g>
</g>
<g>
</g>
<g>
</g>
<g>
</g>
<g>
</g>
<g>
</g>
<g>
</g>
<g>
</g>
<g>
</g>
<g>
</g>
<g>
</g>
<g>
</g>
<g>
</g>
<g>
</g>
<g>
</g>
</svg>
