<?xml version="1.0" encoding="iso-8859-1"?>
<!-- Generator: Adobe Illustrator 19.0.0, SVG Export Plug-In . SVG Version: 6.00 Build 0)  -->
<svg version="1.1" id="Capa_1" xmlns="http://www.w3.org/2000/svg" xmlns:xlink="http://www.w3.org/1999/xlink" x="0px" y="0px"
	 viewBox="0 0 512.001 512.001" style="enable-background:new 0 0 512.001 512.001;" xml:space="preserve">
<g>
	<g>
		<path d="M250,123c-5.51,0-10,4.49-10,10s4.49,10,10,10s10-4.49,10-10S255.51,123,250,123z"/>
	</g>
</g>
<g>
	<g>
		<path d="M412,200c-5.51,0-10,4.49-10,10s4.49,10,10,10s10-4.49,10-10S417.51,200,412,200z"/>
	</g>
</g>
<g>
	<g>
		<path d="M502,492c-5.51,0-10,4.49-10,10s4.49,10,10,10s10-4.49,10-10S507.51,492,502,492z"/>
	</g>
</g>
<g>
	<g>
		<path d="M214.428,382.406c0.091-0.072,0.181-0.145,0.27-0.22c1.345-1.14,31.448-26.657,48.789-42.186h49.999
			c17.923,0,33.821-6.625,45.976-19.16c17.403-17.946,22.812-43.681,24.413-60.652h75.376c29.086,0,52.75-23.889,52.75-53.252
			s-23.664-53.252-52.75-53.252c-0.625,0-1.249,0.059-1.864,0.175l-1.929,0.366c-8.952-19.925-25.913-34.627-46.278-40.709
			c-2.611-33.07-30.062-59.182-63.468-59.182c-0.625,0-1.25,0.059-1.864,0.175l-4.432,0.841C325.253,21.904,292.841,0,256.207,0
			c-18.893,0-37.132,6.647-52.746,19.224c-11.883,9.571-21.696,22.29-28.235,36.449c-5.423-0.972-10.955-1.34-13.893-1.34
			c-13.329,0-28.077,7.104-39.451,19.004c-5.48,5.733-9.827,12.155-12.976,18.979C102.978,90.161,96.602,89,90,89
			c-19.724,0-38.021,11.889-47.774,30.333C39.993,119.083,38.069,119,37,119c-17.11,0-37,17.473-37,40c0,22.056,17.944,40,40,40
			h13.504c1.459,16.939,6.707,43.47,24.52,61.84C90.179,273.375,106.077,280,124,280h45.838c0.98,0,1.9,0.147,2.383,1.921
			c1.058,3.881-1.548,10.26-9.766,15.097C116.377,324.135,91,365.326,91,413c0,30.27,4.779,56.756,14.223,79H10
			c-5.51,0-10,4.49-10,10s4.49,10,10,10h452c5.51,0,10-4.49,10-10s-4.49-10-10-10H229.439C220.721,484.852,191,457.636,191,419
			C191,402.66,207.384,387.966,214.428,382.406z M439.567,168.61c2.926,9.29,13.482,6.428,20.561,5.085
			c15.327,0.411,28.056,11.568,31.149,26.305H452c-5.51,0-10,4.49-10,10s4.49,10,10,10h37.363
			c-5.01,11.859-16.62,20.188-30.113,20.188h-134.5c-18.059,0-32.75-14.917-32.75-33.252c0-18.727,13.157-33.252,24.476-33.252
			c7.4,0,17.337,6.888,21.189-4.017c8.162-23.101,28.861-39.235,50.336-39.235C411.656,130.432,432.379,145.774,439.567,168.61z
			 M244.501,183h32.608c-3.239,7.288-5.109,15.452-5.109,23.936c0,28.899,22.926,52.478,51.379,53.217
			c-1.3,7.788-3.681,15.504-6.991,18.918c-0.581,0.599-0.901,0.929-2.902,0.929h-46.479c-12.41,0-22.506-10.096-22.506-22.506V183z
			 M161.339,74.333c8.577,0.002,25.002,8.603,29.22-3.338C201.167,40.97,228.163,20,256.207,20
			c30.841,0,57.855,19.993,67.221,49.751c3.231,10.265,15.665,6.016,23.175,4.592c20.929,0.428,38.281,15.86,42.04,36.101
			c-0.215-0.002-0.428-0.012-0.644-0.012c-14.043,0-27.551,4.556-39.112,12.568H290c-5.51,0-10,4.49-10,10s4.49,10,10,10h39.012
			c-2.424,3.501-4.612,7.227-6.518,11.162c-0.025,0.123-11.539,0.68-12.486,0.79c-6.869,0.793-12.569,3.631-17.949,8.048H179.8
			c2.316-23.219-16.486-44-39.8-44c-0.323,0-5-11-13.757-16.431C133.148,85.719,149.676,74.333,161.339,74.333z M184.412,183
			l-0.179,20.371C184.152,212.54,176.627,220,167.458,220H124c-1.996,0-2.313-0.325-2.888-0.914
			c-3.432-3.518-5.877-11.874-7.144-20.086H140c13.058,0,24.673-6.291,31.978-16H184.412z M40,179c-11.028,0-20-8.972-20-20
			c0-10.846,10.44-19.998,16.998-20c7.098-0.002,16.962,5.042,20.479-4.795C61.815,122.065,73.844,109,90,109
			c15.307,0,28.71,9.792,33.351,24.367c2.649,8.318,10.858,6.893,17.486,5.65C151.478,139.458,160,148.253,160,159
			c0,11.028-8.972,20-20,20H40z M171,419c0,32.301,15.975,57.387,29.732,73h-23.633c-1.727-1.317-4.513-3.781-7.679-7.9
			c-6.78-8.839-11.79-20.559-14.89-34.838c-1.144-5.27-6.626-8.8-11.889-7.662c-5.346,1.156-8.83,6.546-7.662,11.891
			c3.83,17.724,9.97,30.178,15.528,38.51h-23.235C116.471,470.857,111,444.317,111,413c0-40.3,21.876-75.369,61.6-98.746
			c17.36-10.216,22.011-26.241,18.919-37.59C188.761,266.541,180.251,260,169.838,260c0,0-45.769,0-45.838,0
			c-32.928,0-47.559-31.845-50.477-61h20.062c2.06,18.993,9.804,41,30.414,41h43.458c20.101,0,36.598-16.353,36.774-36.453
			c0,0,0.102-11.639,0.18-20.547H224.5v74.494c0,23.438,19.068,42.506,42.506,42.506c0,0,46.36,0,46.479,0
			c19.937,0,27.971-21.159,30.28-39.813h20.076C360.665,289.029,346.022,320,313.485,320h-53.838c-2.483,0-4.877,0.924-6.717,2.592
			c-15.88,14.398-48.711,42.257-51.035,44.227C190.288,376.01,171,394.913,171,419z"/>
	</g>
</g>
<g>
	<g>
		<path d="M190.702,338.022c-2.886-4.355-9.285-5.836-13.861-2.812c-14.419,9.549-25.639,20.749-33.349,33.258
			c-2.875,4.664-1.373,10.897,3.268,13.761c4.649,2.869,10.925,1.356,13.762-3.279c6.158-10.02,15.358-19.13,27.368-27.07
			C192.48,348.831,193.75,342.622,190.702,338.022z"/>
	</g>
</g>
<g>
	<g>
		<circle cx="141" cy="412" r="10"/>
	</g>
</g>
<g>
</g>
<g>
</g>
<g>
</g>
<g>
</g>
<g>
</g>
<g>
</g>
<g>
</g>
<g>
</g>
<g>
</g>
<g>
</g>
<g>
</g>
<g>
</g>
<g>
</g>
<g>
</g>
<g>
</g>
</svg>
