<?xml version="1.0" encoding="iso-8859-1"?>
<!-- Generator: Adobe Illustrator 19.0.0, SVG Export Plug-In . SVG Version: 6.00 Build 0)  -->
<svg version="1.1" id="Layer_1" xmlns="http://www.w3.org/2000/svg" xmlns:xlink="http://www.w3.org/1999/xlink" x="0px" y="0px"
	 viewBox="0 0 512 512" style="enable-background:new 0 0 512 512;" xml:space="preserve">
<g>
	<g>
		<g>
			<path d="M504.861,7.139c-9.52-9.519-25.008-9.518-34.528,0L300.661,176.813c-0.002,0.002-0.004,0.004-0.008,0.006l-71.245,71.247
				l-97.089,0.185c-3.774-2.704-8.272-4.183-13.007-4.183c-5.986,0-11.615,2.332-15.848,6.565
				c-4.552,4.552-6.711,10.593-6.519,16.571l-93.691,70.07c-1.885,1.409-3.064,3.568-3.233,5.915
				c-0.169,2.348,0.691,4.653,2.356,6.317l32.383,32.383c0.002,0.002,0.004,0.004,0.006,0.006l127.73,127.729
				c1.527,1.526,3.592,2.375,5.736,2.375c0.194,0,0.387-0.006,0.581-0.021c2.347-0.168,4.506-1.348,5.915-3.232l70.062-93.679
				c0.244,0.008,0.486,0.036,0.732,0.036c5.986,0,11.615-2.331,15.848-6.565c7.845-7.845,8.622-20.095,2.38-28.844l0.184-97.099
				l156.698-156.698c3.168-3.168,3.168-8.304,0-11.471c-3.168-3.168-8.303-3.169-11.472,0l-79.715,79.715l-11.583-11.583
				L481.804,18.611c3.195-3.194,8.392-3.195,11.585,0c3.194,3.194,3.193,8.39-0.001,11.583l-66.941,66.942
				c-3.168,3.168-3.168,8.304,0,11.471c3.169,3.168,8.304,3.168,11.472,0l66.942-66.941C514.379,32.147,514.38,16.658,504.861,7.139
				z M229.42,264.29l18.291,18.291l-0.153,80.451l-45.65-45.65l-52.938-52.938L229.42,264.29z M167.344,491.528l-20.566-20.566
				l28.347-35.315c2.804-3.492,2.245-8.598-1.248-11.403c-3.496-2.804-8.601-2.245-11.404,1.248l-27.235,33.93l-19.927-19.926
				l30.878-33.643c3.029-3.301,2.81-8.432-0.491-11.461c-3.301-3.031-8.431-2.81-11.461,0.491l-30.408,33.131l-19.839-19.839
				l32.312-29.6c3.303-3.026,3.528-8.157,0.502-11.461c-3.027-3.302-8.158-3.527-11.461-0.502l-32.835,30.08l-19.946-19.946
				l34.77-28.039c3.488-2.812,4.034-7.918,1.222-11.406c-2.812-3.487-7.918-4.033-11.406-1.222L41.025,365.21L20.47,344.656
				l83.139-62.18L229.524,408.39L167.344,491.528z M249.898,397.065c-1.169,1.169-2.723,1.814-4.376,1.814
				c-1.653,0-3.207-0.645-4.376-1.814L114.932,270.854c-2.41-2.414-2.41-6.338,0.002-8.75c1.169-1.169,2.723-1.814,4.377-1.814
				c1.653,0,3.207,0.643,4.376,1.814l126.21,126.209C252.311,390.727,252.311,394.653,249.898,397.065z M317.973,205.611
				l-62.143,62.144l-11.583-11.583l62.144-62.144L317.973,205.611z"/>
			<path d="M232.645,311.051c4.233-4.232,6.565-9.861,6.565-15.847s-2.331-11.615-6.565-15.85
				c-4.233-4.231-9.862-6.562-15.847-6.562c-5.986,0-11.614,2.331-15.847,6.563c-4.233,4.234-6.565,9.862-6.565,15.849
				s2.332,11.615,6.564,15.846c4.232,4.233,9.861,6.565,15.847,6.565C222.783,317.615,228.411,315.284,232.645,311.051z
				 M212.418,299.578c-1.168-1.167-1.812-2.721-1.812-4.374c0.001-1.655,0.645-3.208,1.814-4.377
				c1.169-1.168,2.723-1.813,4.376-1.813c1.654,0,3.209,0.645,4.376,1.812c1.169,1.169,1.813,2.724,1.813,4.378
				c0,1.653-0.644,3.207-1.813,4.375c-1.169,1.169-2.723,1.814-4.377,1.814C215.143,301.392,213.589,300.749,212.418,299.578z"/>
		</g>
	</g>
</g>
<g>
</g>
<g>
</g>
<g>
</g>
<g>
</g>
<g>
</g>
<g>
</g>
<g>
</g>
<g>
</g>
<g>
</g>
<g>
</g>
<g>
</g>
<g>
</g>
<g>
</g>
<g>
</g>
<g>
</g>
</svg>
