<?xml version="1.0" encoding="iso-8859-1"?>
<!-- Generator: Adobe Illustrator 19.0.0, SVG Export Plug-In . SVG Version: 6.00 Build 0)  -->
<svg version="1.1" id="Capa_1" xmlns="http://www.w3.org/2000/svg" xmlns:xlink="http://www.w3.org/1999/xlink" x="0px" y="0px"
	 viewBox="0 0 487.101 487.101" style="enable-background:new 0 0 487.101 487.101;" xml:space="preserve">
<g>
	<path d="M457.101,386.796h-30V283.866c34.192-6.968,60-37.271,60-73.491c0-41.355-33.645-75-75-75s-75,33.645-75,75
		c0,36.219,25.808,66.522,60,73.491v102.931h-30v-48.421h-30v48.421h-30V144.798L153.55,31.581L89.534,78.782V26.883h-30v74.019
		L0,144.798v315.419h307.101v-43.421h30v43.421h30v-43.421h30v43.421h30v-43.421h30v43.421h30V338.375h-30V386.796z
		 M367.101,210.375c0-24.813,20.187-45,45-45s45,20.187,45,45s-20.187,45-45,45S367.101,235.188,367.101,210.375z M195.134,430.217
		h-83.167V277.375h83.167V430.217z M277.101,430.217h-51.967V247.375H81.967v182.842H30V159.952l123.55-91.098l123.55,91.098
		V430.217z"/>
</g>
<g>
</g>
<g>
</g>
<g>
</g>
<g>
</g>
<g>
</g>
<g>
</g>
<g>
</g>
<g>
</g>
<g>
</g>
<g>
</g>
<g>
</g>
<g>
</g>
<g>
</g>
<g>
</g>
<g>
</g>
</svg>
