<?xml version="1.0" encoding="iso-8859-1"?>
<!-- Generator: Adobe Illustrator 19.0.0, SVG Export Plug-In . SVG Version: 6.00 Build 0)  -->
<svg version="1.1" id="Capa_1" xmlns="http://www.w3.org/2000/svg" xmlns:xlink="http://www.w3.org/1999/xlink" x="0px" y="0px"
	 viewBox="0 0 496 496" style="enable-background:new 0 0 496 496;" xml:space="preserve">
<g>
	<g>
		<g>
			<path d="M447.816,390.192c-5.376-32.232-27.976-58.68-58.976-69.016L320,298.232V288h-16v15.024l-11.936,47.752L259.752,312
				h-23.504l-32.312,38.776L192,303.024V288h-16v10.232l-68.832,22.944c-31,10.336-53.6,36.784-58.976,69.016L30.552,496H248
				h217.448L447.816,390.192z M344,323.104l24,8V416h-24V323.104z M168,317.768l10.336-3.448l17.728,70.904L243.752,328h8.496
				l47.688,57.224l17.728-70.904L328,317.768V416H168V317.768z M128,331.104l24-8V416h-24.048L128,331.104z M112,415.56L104.84,480
				H49.448l14.52-87.168c4.384-26.296,22.784-47.864,48.032-56.376V415.56z M248,480H120.936l5.336-48h243.496l5.296,48H248z
				 M391.16,480L384,415.56v-79.104c25.248,8.512,43.648,30.08,48.032,56.376L446.552,480H391.16z"/>
			<path d="M94.384,179.128l3.232-15.672c-46.288-9.528-49.6-19.376-49.616-19.448C49.376,133.152,121.208,112,248,112
				s198.624,21.152,200,31.984c-0.016,0.096-3.328,9.944-49.616,19.472l3.232,15.672C444.176,170.36,464,159.2,464,144
				c0-21.4-44.872-33.92-97.416-40.776C358.352,44.728,307.84,0,248,0c-59.84,0-110.352,44.728-118.584,103.224
				C76.872,110.08,32,122.6,32,144C32,159.2,51.824,170.36,94.384,179.128z M248,16c50.424,0,93.24,36.648,102.136,85.28
				C314.064,97.44,276.272,96,248,96c-28.272,0-66.064,1.44-102.136,5.28C154.76,52.648,197.576,16,248,16z"/>
			<path d="M344.84,132.752C314.968,129.6,282.384,128,248,128c-34.384,0-66.968,1.6-96.84,4.752l-7.16,0.76v3.296
				c-18.232,3.72-32,19.872-32,39.192c0,20.528,15.6,37.296,35.536,39.552c4.08,14.04,11.616,26.912,22.24,37.536l31.192,31.2
				c7.552,7.552,17.6,11.712,28.288,11.712h37.488c10.688,0,20.736-4.16,28.288-11.712l31.192-31.2
				c10.624-10.624,18.152-23.504,22.24-37.536C368.4,213.296,384,196.528,384,176c0-19.312-13.768-35.472-32-39.192v-3.296
				L344.84,132.752z M128,176c0-10.416,6.712-19.216,16-22.528v37.392c0,2.616,0.152,5.208,0.376,7.784
				C134.896,195.44,128,186.552,128,176z M336,190.864c0,19.232-7.496,37.312-21.088,50.912l-31.192,31.2
				c-4.536,4.528-10.56,7.024-16.976,7.024h-37.488c-6.416,0-12.448-2.496-16.976-7.024l-31.192-31.2
				c-13.592-13.6-21.088-31.68-21.088-50.912v-42.92c27.344-2.616,56.904-3.944,88-3.944s60.656,1.328,88,3.944V190.864z M368,176
				c0,10.552-6.896,19.44-16.376,22.64c0.224-2.568,0.376-5.16,0.376-7.776v-37.392C361.288,156.784,368,165.584,368,176z"/>
			<path d="M200,224v24h96v-24c0-13.232-10.768-24-24-24h-48C210.768,200,200,210.768,200,224z M280,224v8h-64v-8
				c0-4.408,3.584-8,8-8h48C276.416,216,280,219.592,280,224z"/>
			<rect x="240" y="352" width="16" height="16"/>
			<rect x="240" y="384" width="16" height="16"/>
		</g>
	</g>
</g>
<g>
</g>
<g>
</g>
<g>
</g>
<g>
</g>
<g>
</g>
<g>
</g>
<g>
</g>
<g>
</g>
<g>
</g>
<g>
</g>
<g>
</g>
<g>
</g>
<g>
</g>
<g>
</g>
<g>
</g>
</svg>
