<?xml version="1.0" encoding="iso-8859-1"?>
<!-- Generator: Adobe Illustrator 19.0.0, SVG Export Plug-In . SVG Version: 6.00 Build 0)  -->
<svg version="1.1" id="Capa_1" xmlns="http://www.w3.org/2000/svg" xmlns:xlink="http://www.w3.org/1999/xlink" x="0px" y="0px"
	 viewBox="0 0 512 512" style="enable-background:new 0 0 512 512;" xml:space="preserve">
<g>
	<g>
		<path d="M503.553,352.374c-19.964-28.098-55.516-38.182-86.143-27.378c-14.558-52.953-60.158-92.103-115.215-98.184v-60.87h15.01
			c57.934,0,105.068-47.133,105.068-105.068V15.845h-45.029c-38.176,0-71.658,20.468-90.058,51.004
			c-18.4-30.536-51.882-51.004-90.058-51.004h-45.029v45.029c0,57.934,47.133,105.068,105.068,105.068h15.01v60.901
			c-38.089,4.304-72.919,24.788-95.197,56.122c-32.409-7.842-67.841-0.148-94.29,23.128l-11.302,9.945H0v180.116
			c13.917,0,290.955,0,337.242,0L512,364.263L503.553,352.374z M377.243,45.865h15.01v15.01c0,39.184-30.191,71.431-68.53,74.747
			l34.115-34.115L336.611,80.28l-34.115,34.115C305.812,76.056,338.059,45.865,377.243,45.865z M237.759,80.28l-21.227,21.227
			l34.115,34.115c-38.339-3.316-68.53-35.563-68.53-74.747v-15.01h15.01c39.184,0,71.431,30.191,74.747,68.53L237.759,80.28z
			 M62.04,466.135H30.019V346.058H62.04V466.135z M287.185,256c50.507,0,93.3,35.642,103.009,84.265l-54.366,35.812h-18.665
			c9.444-12.552,15.051-28.147,15.051-45.029v-15.01h-93.74c-8.285,0-11.631-5.961-16.966-9.945
			c-4.951-4.357-10.217-8.168-15.719-11.435C225.583,270.496,255.507,256,287.185,256z M327.186,466.135H92.059V337.834l10.46-9.204
			c28.264-24.874,70.894-24.873,99.158,0c3.976,2.682,14.948,17.328,36.797,17.328h61.148
			c-6.194,17.472-22.888,30.119-42.457,30.119h-61.318v30.019h148.98l72.68-47.876c16.145-10.633,36.462-9.67,51.243,1.075
			L327.186,466.135z"/>
	</g>
</g>
<g>
</g>
<g>
</g>
<g>
</g>
<g>
</g>
<g>
</g>
<g>
</g>
<g>
</g>
<g>
</g>
<g>
</g>
<g>
</g>
<g>
</g>
<g>
</g>
<g>
</g>
<g>
</g>
<g>
</g>
</svg>
