<?xml version="1.0" encoding="iso-8859-1"?>
<!-- Generator: Adobe Illustrator 19.0.0, SVG Export Plug-In . SVG Version: 6.00 Build 0)  -->
<svg version="1.1" id="Capa_1" xmlns="http://www.w3.org/2000/svg" xmlns:xlink="http://www.w3.org/1999/xlink" x="0px" y="0px"
	 viewBox="0 0 208.214 208.214" style="enable-background:new 0 0 208.214 208.214;" xml:space="preserve">
<g>
	<g>
		<path d="M61.419,7.597c-0.635-1.094-1.843-1.734-3.075-1.698c-4.977,0.189-30.16,1.34-37.052,5.374
			c-8.117,4.75-10.873,15.249-6.144,23.402c2.292,3.949,5.977,6.767,10.378,7.933c1.447,0.384,2.915,0.573,4.372,0.573
			c2.975,0,5.91-0.789,8.552-2.336c6.89-4.033,20.302-25.47,22.922-29.725C62.035,10.044,62.05,8.689,61.419,7.597z M35.015,34.934
			c-2.36,1.379-5.113,1.751-7.753,1.056c-2.64-0.7-4.85-2.389-6.226-4.76c-2.836-4.893-1.184-11.191,3.686-14.041
			c3.441-2.014,16.678-3.434,27.329-4.11C46.214,22.053,38.456,32.919,35.015,34.934z"/>
	</g>
</g>
<g>
	<g>
		<path d="M34.498,23.353c-0.949-1.633-3.034-2.183-4.661-1.236L6.282,35.902c-1.626,0.952-2.178,3.048-1.231,4.681
			c0.635,1.092,1.777,1.7,2.949,1.7c0.582,0,1.174-0.15,1.712-0.464l23.555-13.785C34.894,27.082,35.445,24.986,34.498,23.353z"/>
	</g>
</g>
<g>
	<g>
		<path d="M33.047,124.586c-2.893-7.465-21.891-24.107-25.672-27.368c-0.952-0.823-2.28-1.051-3.456-0.592
			c-1.174,0.457-1.999,1.529-2.149,2.784c-0.587,4.968-3.372,30.135-0.478,37.596c1.65,4.26,4.855,7.62,9.021,9.458
			c2.196,0.969,4.521,1.456,6.851,1.456c2.091,0,4.183-0.391,6.192-1.176C32.109,143.318,36.457,133.377,33.047,124.586z
			 M20.881,140.366c-5.262,2.05-11.191-0.565-13.239-5.842c-1.444-3.726-0.782-17.08,0.21-27.756
			c7.917,7.187,17.399,16.572,18.845,20.301C28.741,132.346,26.132,138.311,20.881,140.366z"/>
	</g>
</g>
<g>
	<g>
		<path d="M29.533,153.246l-9.893-25.513c-0.684-1.763-2.666-2.632-4.412-1.947c-1.754,0.684-2.623,2.669-1.939,4.43l9.894,25.513
			c0.524,1.353,1.811,2.183,3.174,2.183c0.413,0,0.831-0.077,1.237-0.236C29.349,156.992,30.218,155.007,29.533,153.246z"/>
	</g>
</g>
<g>
	<g>
		<path d="M190.706,46.221c-1.655-4.719-10.211-28.535-16.089-33.951c-3.354-3.089-7.712-4.7-12.252-4.487
			c-4.545,0.195-8.745,2.159-11.822,5.526c-3.077,3.369-4.664,7.74-4.468,12.307c0.195,4.567,2.149,8.784,5.502,11.875h0.002
			c5.878,5.414,30.237,11.93,35.06,13.181c0.283,0.073,0.567,0.109,0.852,0.109c0.942,0,1.857-0.393,2.512-1.108
			C190.854,48.741,191.124,47.414,190.706,46.221z M156.187,32.446c-4.156-3.828-4.434-10.336-0.621-14.508
			c1.847-2.022,4.366-3.2,7.093-3.318c2.743-0.121,5.337,0.84,7.351,2.693c2.934,2.703,8.207,14.981,12.006,24.999
			C171.753,39.372,159.124,35.149,156.187,32.446z"/>
	</g>
</g>
<g>
	<g>
		<path d="M166.836,23.679L146.747,5.168c-1.388-1.28-3.543-1.186-4.814,0.208c-1.273,1.393-1.179,3.557,0.206,4.835l20.089,18.51
			c0.655,0.604,1.48,0.901,2.302,0.901c0.922,0,1.84-0.372,2.514-1.109C168.318,27.121,168.224,24.957,166.836,23.679z"/>
	</g>
</g>
<g>
	<g>
		<path d="M197.085,100.218c-8.82-3.277-18.632,1.265-21.893,10.114c-2.768,7.514,0.445,32.628,1.118,37.584
			c0.169,1.254,1.014,2.309,2.193,2.749c0.386,0.142,0.785,0.212,1.183,0.212c0.821,0,1.632-0.3,2.266-0.865
			c3.722-3.326,22.434-20.291,25.202-27.803C210.414,113.358,205.897,103.491,197.085,100.218z M200.76,119.834
			c-1.381,3.75-10.701,13.298-18.497,20.62c-1.174-10.653-2.062-23.994-0.679-27.745c1.524-4.14,5.441-6.707,9.598-6.707
			c1.178,0,2.372,0.205,3.534,0.638c2.563,0.951,4.601,2.848,5.743,5.34C201.601,114.474,201.709,117.262,200.76,119.834z"/>
	</g>
</g>
<g>
	<g>
		<path d="M201.14,89.215c-1.768-0.649-3.726,0.251-4.379,2.022l-9.46,25.68c-0.652,1.773,0.251,3.741,2.014,4.398
			c0.391,0.143,0.79,0.213,1.183,0.213c1.384,0,2.686-0.857,3.197-2.236l9.46-25.68C203.806,91.84,202.903,89.872,201.14,89.215z"/>
	</g>
</g>
<g>
	<g>
		<path d="M119.437,185.439c-0.377-4.557-2.5-8.692-5.975-11.645c-3.475-2.953-7.89-4.372-12.421-3.989
			c-7.95,0.666-29.235,14.23-33.422,16.942c-1.058,0.686-1.654,1.901-1.55,3.161c0.104,1.261,0.891,2.36,2.048,2.86
			c4.427,1.913,26.312,11.179,34.929,11.179c0.29,0,0.567-0.01,0.826-0.032c4.536-0.381,8.653-2.512,11.593-6.002
			C118.406,194.422,119.814,189.992,119.437,185.439z M110.262,193.494c-1.763,2.094-4.234,3.372-6.955,3.599
			c-3.951,0.333-16.527-4.101-26.435-8.09c9.11-5.581,20.767-12.042,24.733-12.373c2.717-0.237,5.369,0.62,7.455,2.393
			c2.086,1.771,3.357,4.253,3.584,6.985S112.025,191.4,110.262,193.494z"/>
	</g>
</g>
<g>
	<g>
		<path d="M127.4,181.337l-27.168,2.277c-1.876,0.157-3.27,1.811-3.113,3.695c0.148,1.789,1.638,3.139,3.393,3.139
			c0.096,0,0.191-0.003,0.287-0.012l27.168-2.277c1.876-0.157,3.27-1.811,3.113-3.695S129.274,181.174,127.4,181.337z"/>
	</g>
</g>
<g>
	<g>
		<path d="M100.539,29.471c-36.171,0-65.601,29.558-65.601,65.888c0,36.33,29.43,65.888,65.601,65.888
			c36.171,0,65.601-29.558,65.601-65.888C166.14,59.029,136.71,29.471,100.539,29.471z M100.539,154.399
			c-32.413,0-58.784-26.486-58.784-59.042s26.37-59.042,58.784-59.042c32.415,0,58.784,26.486,58.784,59.042
			S132.952,154.399,100.539,154.399z"/>
	</g>
</g>
<g>
	<g>
		<path d="M76.968,58.94c-4.11-4.128-5.337-11.503-5.641-16.961c-0.068-1.205-0.763-2.285-1.828-2.843
			c-1.063-0.56-2.343-0.514-3.366,0.121C52.229,47.88,42.076,61.28,37.541,76.992c-0.265,0.913-0.137,1.896,0.35,2.712
			c0.488,0.816,1.292,1.391,2.219,1.589c8.293,1.763,9.351,3.717,9.359,3.736c1.811,3.639,4.683,5.948,8.09,6.504
			c0.536,0.087,1.08,0.13,1.63,0.13c3.734,0,7.75-1.997,11.482-5.743c0.758-0.761,1.562-1.522,2.374-2.289
			c4.139-3.913,8.83-8.351,8.917-14.244C82.015,65.835,80.334,62.321,76.968,58.94z M68.374,78.646
			c-0.862,0.814-1.715,1.623-2.521,2.432c-2.652,2.664-5.27,3.994-7.2,3.698c-1.22-0.198-2.258-1.145-3.087-2.809
			c-1.389-2.79-4.724-4.883-10.383-6.477c3.859-10.865,10.791-20.323,19.965-27.271c1.102,6.769,3.449,11.988,7.004,15.558
			c2.014,2.022,3.023,3.874,2.999,5.504C75.105,72.28,71.683,75.516,68.374,78.646z"/>
	</g>
</g>
<g>
	<g>
		<path d="M106.205,107.97c-1.507-6.052-5.018-10.75-10.153-13.582c-5.644-3.113-12.897-3.668-19.422-1.487
			c-10.161,3.403-15.647,7.958-11.604,20.144c2.772,8.349,8.096,9.291,12.377,10.049c1.79,0.317,3.483,0.616,5.079,1.418
			c1.64,0.823,1.172,9.289-1.708,17.997c-0.51,1.536,0.123,3.22,1.514,4.038c0.527,0.309,4.262,2.408,8.335,2.408
			c1.275,0,2.582-0.205,3.837-0.734c1.893-0.802,4.376-2.661,5.448-6.963c0.954-3.838,2.222-7.076,3.449-10.208
			C106.059,124.149,108.61,117.629,106.205,107.97z M97.015,128.545c-1.244,3.18-2.656,6.782-3.719,11.052
			c-0.468,1.881-1.227,2.205-1.476,2.313c-0.899,0.381-2.326,0.181-3.661-0.236c1.944-6.902,4.432-19.739-2.627-23.282
			c-2.485-1.248-4.854-1.667-6.946-2.038c-3.849-0.679-5.603-0.992-7.091-5.473c-2.297-6.922-1.207-8.637,7.293-11.484
			c4.748-1.592,9.979-1.217,13.984,0.992c3.476,1.918,5.774,5.026,6.822,9.243C101.469,117.165,99.601,121.939,97.015,128.545z"/>
	</g>
</g>
<g>
	<g>
		<path d="M161.464,70.93c-5.26-13.227-14.841-24.576-26.977-31.961c-1.331-0.811-3.04-0.611-4.149,0.481
			c-15.887,15.604-17.265,21.05-16.515,24.318c0.433,1.889,1.799,3.347,3.746,3.999c5.226,1.749,9.486,3.511,12.172,4.693
			c-1.393,2.026-3.901,4.451-7.946,4.451c-16.253,0-25.45,0.305-25.45,6.584c0,2.925,2.768,5.502,10.677,12.121
			c2.905,2.432,7.219,6.042,8.252,7.516c0.403,4.504,4.347,17.811,7.262,20.741c2.034,2.041,5.55,3.83,9.288,3.828
			c0.985,0,1.985-0.123,2.975-0.399c3.123-0.869,7.253-3.543,9.197-11.346c1.277-5.132,1.58-9.795,1.824-13.542
			c0.398-6.135,0.734-8.545,2.693-9.53c2.306-1.159,6.153-4.417,12.889-19.265C161.785,72.768,161.809,71.797,161.464,70.93z
			 M145.465,86.764c-5.642,2.835-6.031,8.844-6.446,15.206c-0.235,3.654-0.505,7.794-1.633,12.327
			c-0.633,2.541-1.91,5.716-4.405,6.41c-2.106,0.584-4.608-0.654-5.588-1.635c-1.582-1.886-5.337-14.095-5.337-16.597
			c0-2.924-2.767-5.499-10.672-12.117c-2.106-1.761-4.951-4.142-6.752-5.881c4.221-0.719,12.655-0.719,17.162-0.717
			c11.767,0,15.669-11.346,15.829-11.829c0.536-1.616-0.193-3.383-1.708-4.146c-0.258-0.128-6.188-3.089-15.201-6.175
			c0.638-1.608,3.087-5.91,12.471-15.355c9.419,6.339,16.927,15.409,21.396,25.875C148.667,84.866,145.785,86.604,145.465,86.764z"
			/>
	</g>
</g>
<g>
</g>
<g>
</g>
<g>
</g>
<g>
</g>
<g>
</g>
<g>
</g>
<g>
</g>
<g>
</g>
<g>
</g>
<g>
</g>
<g>
</g>
<g>
</g>
<g>
</g>
<g>
</g>
<g>
</g>
</svg>
