<svg xmlns="http://www.w3.org/2000/svg" style="display: none;"><symbol id="down-arrow" viewBox="0 0 129 129"><title>down-arrow</title><path d="m121.3,34.6c-1.6-1.6-4.2-1.6-5.8,0l-51,51.1-51.1-51.1c-1.6-1.6-4.2-1.6-5.8,0-1.6,1.6-1.6,4.2 0,5.8l53.9,53.9c0.8,0.8 1.8,1.2 2.9,1.2 1,0 2.1-0.4 2.9-1.2l53.9-53.9c1.7-1.6 1.7-4.2 0.1-5.8z"/></symbol><symbol id="check" viewBox="0 0 512 512"><title>check</title><g> <g> <path d="M468.907,214.604c-11.423,0-20.682,9.26-20.682,20.682v20.831c-0.031,54.338-21.221,105.412-59.666,143.812 c-38.417,38.372-89.467,59.5-143.761,59.5c-0.04,0-0.08,0-0.12,0C132.506,459.365,41.3,368.056,41.364,255.883 c0.031-54.337,21.221-105.411,59.667-143.813c38.417-38.372,89.468-59.5,143.761-59.5c0.04,0,0.08,0,0.12,0 c28.672,0.016,56.49,5.942,82.68,17.611c10.436,4.65,22.659-0.041,27.309-10.474c4.648-10.433-0.04-22.659-10.474-27.309 c-31.516-14.043-64.989-21.173-99.492-21.192c-0.052,0-0.092,0-0.144,0c-65.329,0-126.767,25.428-172.993,71.6 C25.536,129.014,0.038,190.473,0,255.861c-0.037,65.386,25.389,126.874,71.599,173.136c46.21,46.262,107.668,71.76,173.055,71.798 c0.051,0,0.092,0,0.144,0c65.329,0,126.767-25.427,172.993-71.6c46.262-46.209,71.76-107.668,71.798-173.066v-20.842 C489.589,223.864,480.33,214.604,468.907,214.604z"/> </g> </g><g> <g> <path d="M505.942,39.803c-8.077-8.076-21.172-8.076-29.249,0L244.794,271.701l-52.609-52.609c-8.076-8.077-21.172-8.077-29.248,0 c-8.077,8.077-8.077,21.172,0,29.249l67.234,67.234c4.038,4.039,9.332,6.058,14.625,6.058c5.293,0,10.586-2.019,14.625-6.058 L505.942,69.052C514.019,60.975,514.019,47.88,505.942,39.803z"/> </g> </g></symbol><symbol id="gardener" viewBox="0 0 463 463"><title>gardener</title><path d="M183.5,184c-4.143,0-7.5,3.358-7.5,7.5v8c0,4.142,3.357,7.5,7.5,7.5s7.5-3.358,7.5-7.5v-8 C191,187.358,187.643,184,183.5,184z"/><path d="M279.5,207c4.143,0,7.5-3.358,7.5-7.5v-8c0-4.142-3.357-7.5-7.5-7.5s-7.5,3.358-7.5,7.5v8 C272,203.642,275.357,207,279.5,207z"/><path d="M212.092,249.542c-3.29-2.517-7.997-1.888-10.514,1.402c-2.516,3.29-1.888,7.997,1.402,10.513 c8.047,6.154,18.176,9.542,28.52,9.542s20.473-3.389,28.52-9.542c3.29-2.516,3.918-7.223,1.402-10.513 c-2.517-3.29-7.224-3.919-10.514-1.402C245.462,253.707,238.569,256,231.5,256S217.538,253.707,212.092,249.542z"/><path d="M454.764,117.633c-0.852-3.315-3.841-5.633-7.264-5.633h-97.936l-11.889-55.481c-3.417-15.944-12.282-30.371-24.963-40.622 S284.067,0,267.762,0h-72.523c-16.306,0-32.27,5.646-44.95,15.897s-21.546,24.678-24.963,40.622L113.436,112H15.5 c-3.423,0-6.412,2.318-7.264,5.633c-0.853,3.315,0.648,6.787,3.647,8.438c24.745,13.62,53.677,22.969,82.647,29.372 C90.267,170.481,80,209.783,80,239.5c0,16.09,15.494,30.434,46.053,42.632c20.093,8.021,39.847,12.447,42.306,12.983 c2.478,2.077,5.024,4.042,7.641,5.875v10.51c0,13.509-10.99,24.5-24.5,24.5c-1.279,0-2.562,0.051-3.842,0.134 c-0.759-0.955-1.63-1.833-2.619-2.605c-3.787-2.958-8.629-3.987-13.299-2.82l-16,4c-5.859,1.465-10.208,6.136-11.401,11.863 l-15.279,4.117C64.885,357.204,48,379.24,48,404.278V439.5c0,12.958,10.542,23.5,23.5,23.5h320c12.958,0,23.5-10.542,23.5-23.5 v-35.222c0-25.038-16.885-47.074-41.061-53.588l-15.279-4.117c-1.193-5.727-5.542-10.398-11.401-11.863l-16.001-4 c-4.66-1.164-9.511-0.137-13.298,2.82c-0.988,0.772-1.86,1.65-2.619,2.605c-1.281-0.083-2.563-0.134-3.842-0.134 c-13.51,0-24.5-10.991-24.5-24.5v-10.51c2.562-1.794,5.056-3.714,7.485-5.742c0.333,0.046,0.667,0.087,1.009,0.087 c0.519,0,1.046-0.054,1.574-0.167c0.869-0.186,21.53-4.646,42.547-13.036c30.559-12.199,46.053-26.542,46.053-42.632 c0-30.095-10.529-70.017-14.69-84.617c28.129-6.384,56.109-15.586,80.139-28.813C454.115,124.42,455.616,120.948,454.764,117.633z M139.993,59.662C145.538,33.783,168.772,15,195.238,15h72.523c26.466,0,49.7,18.783,55.245,44.662L334.222,112H128.778 L139.993,59.662z M95,239.5c0-28.26,10.446-67.57,14.28-81.043c4.121,0.777,8.228,1.498,12.31,2.167 C120.54,168.148,120,175.817,120,183.5c0,34.887,10.908,66.734,28.793,90.777c-5.452-1.715-11.41-3.766-17.337-6.138 C108.288,258.867,95,248.428,95,239.5z M326.576,162.852c0.94,6.792,1.424,13.714,1.424,20.648c0,66.444-43.29,120.5-96.5,120.5 S135,249.944,135,183.5c0-6.938,0.483-13.859,1.423-20.648c37.73,5.169,71.866,6.151,92.271,6.151c0.498,0,0.993,0,1.476-0.001 L231.5,169l1.33,0.002c0.485,0.001,0.975,0.001,1.476,0.001C254.713,169.003,288.848,168.02,326.576,162.852z M312,369.965V448H151 v-78.035C173.043,388.572,201.565,399,231.5,399C261.434,399,289.956,388.572,312,369.965z M119.379,349.261l15.999-4 c0.073-0.019,0.239-0.059,0.43,0.091c0.192,0.15,0.192,0.321,0.192,0.394V448h-17v-98.254 C119,349.516,119.156,349.316,119.379,349.261z M63,439.5v-35.222c0-18.271,12.321-34.351,29.963-39.105L104,362.199V448H71.5 C66.813,448,63,444.187,63,439.5z M400,404.278V439.5c0,4.687-3.813,8.5-8.5,8.5H359v-85.801l11.037,2.974 C387.679,369.927,400,386.007,400,404.278z M327.192,345.352c0.192-0.149,0.358-0.109,0.429-0.091l16,4 c0.223,0.056,0.379,0.255,0.379,0.485V448h-17V345.746C327,345.673,327,345.502,327.192,345.352z M310.344,350.971 C290.2,372.003,261.687,384,231.5,384c-30.188,0-58.699-11.996-78.844-33.029C173.902,350.355,191,332.893,191,311.5v-1.755 c12.56,5.971,26.22,9.255,40.5,9.255s27.94-3.283,40.5-9.255v1.755C272,332.893,289.098,350.355,310.344,350.971z M370.667,239.5 c0,13.695-29.321,27.578-57.39,36.002C331.712,251.321,343,218.985,343,183.5c0-7.679-0.54-15.349-1.59-22.877 c4.917-0.806,9.87-1.687,14.841-2.649C359.966,170.963,370.667,210.865,370.667,239.5z M234.323,154.003 c-0.492,0-0.981,0-1.458-0.001L231.5,154l-1.365,0.002c-35.025,0.055-115.109-2.705-180.027-27.002h362.785 C348.857,150.966,270.037,154.003,234.323,154.003z"/></symbol><symbol id="trophy" viewBox="0 0 512 512"><title>trophy</title><g> <g> <path d="M511.982,97.701c-0.51-43.455-22.748-67.388-62.619-67.388c-15.432,0-30.302,3.592-40.023,6.589 c0.968-17.762,0.983-28.726,0.983-29.271l0.001-7.604H101.683v7.603c0,0.26,0.026,11.397,1.005,29.281 c-9.72-2.999-24.604-6.598-40.051-6.598c-39.87,0-62.109,23.932-62.619,67.388c-0.502,42.75,9.248,80.804,28.977,113.107 c19.37,31.715,44.128,50.826,61.487,61.271c27.803,16.732,55.59,20.244,74.006,20.244c4.54,0,8.914-0.214,13.005-0.636 c0.271-0.028,0.522-0.06,0.787-0.089c8.904,9.589,18.503,17.27,28.76,22.978c7.561,4.207,12.82,11.544,14.622,19.977 c-10.195,3.173-17.618,12.698-17.618,23.923c0,11.477,7.763,21.17,18.31,24.12v31.91h-41.142v33.301h-40.6v64.167h230.781v-64.167 h-40.6v-33.301h-41.142v-31.91c10.548-2.951,18.311-12.643,18.311-24.12c0-11.226-7.423-20.75-17.618-23.923 c1.802-8.433,7.06-15.769,14.622-19.977c10.232-5.693,19.897-13.416,28.779-22.974c3.147,0.349,7.866,0.72,13.766,0.72 c0.002,0,0.001,0,0.004,0c18.414,0,46.2-3.514,74.001-20.244c17.358-10.446,42.117-29.556,61.487-61.271 C502.735,178.505,512.484,140.45,511.982,97.701z M394.992,15.233c-0.068,2.781-0.176,6.277-0.342,10.369H117.387 c-0.172-4.091-0.287-7.592-0.361-10.369H394.992z M405.334,85.046c10.302-3.429,23.654-6.887,35.615-6.887 c10.029,0,17.25,2.45,21.463,7.282c4.842,5.554,6.403,14.884,4.637,27.734c-7.353,53.526-30.562,95.308-65.354,117.647 c-12.119,7.782-25.171,10.997-36.109,12.139C388.723,194.33,399.921,133.314,405.334,85.046z M114.495,138.009 c7.479,40.115,17.805,74.563,30.693,102.386c0.399,0.864,0.805,1.715,1.209,2.566c-10.934-1.145-23.978-4.359-36.092-12.137 c-34.791-22.34-58.001-64.121-65.354-117.647c-1.765-12.851-0.205-22.182,4.638-27.734c4.213-4.832,11.435-7.281,21.463-7.281 c11.971,0,25.335,3.463,35.641,6.894C108.534,101.518,111.051,119.537,114.495,138.009z M164.488,277.117 c-16.488,0-41.353-3.135-66.164-18.066C72.949,243.781,14.054,197.507,15.224,97.88c0.414-35.233,15.923-52.36,47.413-52.36 c16.841,0,33.474,5.077,41.077,7.755c0.379,5.101,0.804,10.217,1.274,15.312c-10.335-3.036-22.512-5.634-33.936-5.634 c-14.618,0-25.695,4.203-32.925,12.493c-7.859,9.013-10.632,22.403-8.242,39.798c4.094,29.801,12.65,56.141,25.431,78.287 c12.201,21.142,27.938,37.994,46.772,50.086c18.396,11.813,38.293,14.792,52.486,15.077c0.048,0.084,0.097,0.164,0.145,0.247 c0.778,1.363,1.564,2.703,2.358,4.026c0.247,0.413,0.496,0.823,0.745,1.232c0.757,1.244,1.52,2.476,2.291,3.683 c0.29,0.454,0.584,0.897,0.876,1.347c0.525,0.807,1.053,1.607,1.585,2.398c0.514,0.765,1.03,1.522,1.549,2.271 c0.509,0.733,1.019,1.462,1.533,2.181c0.241,0.338,0.478,0.689,0.719,1.023C165.763,277.112,165.134,277.117,164.488,277.117z M356.188,463.015v33.753H155.82v-33.753h25.393h149.581H356.188z M289.653,429.714h25.934v18.094H196.42v-18.094h25.935H289.653z M237.561,414.507v-30.982h36.885v30.982H237.561z M292.757,358.476c0,5.427-4.416,9.842-9.842,9.842h-53.822 c-5.427,0-9.842-4.415-9.842-9.842s4.415-9.842,9.842-9.842h53.822C288.342,348.634,292.757,353.049,292.757,358.476z M330.791,271.552c-0.084,0.109-0.168,0.218-0.252,0.327c-0.748,0.968-1.502,1.912-2.26,2.843 c-0.186,0.227-0.369,0.458-0.556,0.684c-0.833,1.012-1.673,2.002-2.517,2.968c-0.041,0.046-0.079,0.094-0.12,0.14 c-8.479,9.673-17.735,17.334-27.512,22.774c-12.051,6.704-20.245,18.611-22.499,32.139h-38.142 c-2.255-13.529-10.449-25.435-22.5-32.139c-9.436-5.249-17.958-12.266-25.657-20.651l-1.86-2.122 c-7.56-8.622-14.686-19.068-21.179-31.045l-1.989-3.671c-32.697-63.177-42.587-154.488-45.569-202.991h275.705 c-0.127,2.11-0.266,4.289-0.42,6.552c-0.007,0.105-0.015,0.213-0.022,0.318c-0.168,2.452-0.348,4.911-0.539,7.372 c-0.005,0.072-0.011,0.144-0.016,0.217c-0.608,7.8-1.328,15.629-2.149,23.365l-0.497,4.678 c-5.525,49.528-17.194,112.625-41.801,160.153l-2.173,4.006C341.432,256.385,336.246,264.451,330.791,271.552z M413.677,259.051 c-24.813,14.932-49.673,18.066-66.16,18.066c-0.001,0-0.003,0-0.004,0c-0.647,0-1.276-0.005-1.889-0.015 c0.01-0.014,0.02-0.029,0.03-0.043c0.987-1.362,1.959-2.744,2.916-4.145c0.117-0.171,0.232-0.346,0.349-0.517 c0.809-1.192,1.606-2.4,2.394-3.62c0.203-0.313,0.406-0.627,0.607-0.942c0.872-1.369,1.735-2.747,2.581-4.149 c0.133-0.219,0.262-0.444,0.394-0.665c0.693-1.158,1.378-2.327,2.054-3.507c0.158-0.276,0.321-0.54,0.48-0.818 c14.193-0.285,34.09-3.264,52.486-15.077c18.834-12.094,34.571-28.946,46.772-50.086c12.78-22.146,21.336-48.486,25.431-78.287 c2.388-17.396-0.384-30.786-8.242-39.798c-7.229-8.291-18.307-12.494-32.925-12.494c-11.423,0-23.602,2.596-33.936,5.633 c0.479-5.195,0.89-10.178,1.242-14.914c0.01-0.132,0.021-0.265,0.031-0.396c7.605-2.679,24.237-7.755,41.077-7.755 c31.49,0,46.999,17.127,47.414,52.358C497.945,197.507,439.052,243.78,413.677,259.051z"/> </g> </g><g> <g> <path d="M192.356,246.237l-12.7,8.367c4.336,6.583,8.996,12.564,13.851,17.776l11.128-10.366 C200.358,257.423,196.227,252.114,192.356,246.237z"/> </g> </g><g> <g> <path d="M159.716,161.922l-14.826,3.382c7.292,31.965,17.027,58.799,28.933,79.756l13.222-7.512 C175.873,217.883,166.678,192.439,159.716,161.922z"/> </g> </g><g> <g> <polygon points="443.666,333.509 443.655,318.302 430.818,318.31 430.809,305.473 415.602,305.483 415.611,318.321 402.774,318.33 402.784,333.537 415.621,333.528 415.63,346.364 430.837,346.354 430.828,333.517 "/> </g> </g><g> <g> <polygon points="112.785,412.475 112.769,397.268 101.997,397.279 101.986,386.506 86.779,386.522 86.79,397.294 76.016,397.305 76.033,412.512 86.805,412.501 86.816,423.275 102.023,423.259 102.012,412.486 "/> </g> </g><g> <g> <rect x="48.845" y="288.161" width="14.345" height="15.207"/> </g> </g><g> <g> <rect x="141.039" y="333.153" width="14.345" height="15.207"/> </g> </g><g> <g> <rect x="372.254" y="378.905" width="14.345" height="15.207"/> </g> </g></symbol><symbol id="smiling-emoticon-square-face" viewBox="0 0 106.059 106.059"><title>smiling-emoticon-square-face</title><path d="M90.546,15.518C69.858-5.172,36.199-5.172,15.515,15.513C-5.173,36.198-5.171,69.858,15.517,90.547 c20.682,20.684,54.341,20.684,75.027-0.004C111.23,69.858,111.229,36.2,90.546,15.518z M84.757,84.758 c-17.494,17.494-45.96,17.496-63.455,0.002c-17.498-17.497-17.496-45.966,0-63.46C38.796,3.807,67.261,3.805,84.759,21.302 C102.253,38.796,102.251,67.265,84.757,84.758z M33.24,38.671c0-3.424,2.777-6.201,6.201-6.201c3.423,0,6.2,2.776,6.2,6.201 c0,3.426-2.777,6.202-6.2,6.202C36.017,44.873,33.24,42.097,33.24,38.671z M61.357,38.671c0-3.424,2.779-6.201,6.203-6.201 c3.423,0,6.2,2.776,6.2,6.201c0,3.426-2.776,6.202-6.2,6.202S61.357,42.097,61.357,38.671z M76.017,64.068 c-3.843,8.887-12.843,14.629-22.927,14.629c-10.301,0-19.354-5.771-23.064-14.703c-0.636-1.529,0.089-3.285,1.62-3.921 c0.376-0.155,0.766-0.229,1.15-0.229c1.176,0,2.292,0.695,2.771,1.85c2.777,6.686,9.655,11.004,17.523,11.004 c7.69,0,14.528-4.321,17.42-11.011c0.658-1.521,2.424-2.222,3.944-1.563S76.675,62.548,76.017,64.068z"/></symbol><symbol id="sprout" viewBox="0 0 512 512"><title>sprout</title><g> <g> <circle cx="81.161" cy="398.866" r="10"/> </g> </g><g> <g> <path d="M461.2,92.95h-58.838c-13.282,0-25.479,4.734-34.994,12.602v-2.602V75.488c0-39.271-31.947-71.218-71.217-71.218h-66.715 c-5.523,0-10,4.478-10,10v27.463c0,39.27,31.947,71.217,71.217,71.217h56.715v34.994v26.98v39.397 c-2.638-0.169-5.291-0.262-7.957-0.262c-26.281,0-51.407,8.102-72.657,23.429c-4.479,3.23-5.492,9.48-2.261,13.96 c3.231,4.479,9.481,5.494,13.96,2.261c17.823-12.854,38.903-19.649,60.958-19.649c5.331,0,10.601,0.422,15.778,1.215 c0.429,0.095,0.868,0.163,1.316,0.202c31.119,5.174,58.637,24.28,74.234,52.431c1.826,3.295,5.238,5.155,8.756,5.155 c1.639,0,3.302-0.404,4.837-1.255c4.831-2.677,6.577-8.763,3.9-13.594c-17.304-31.232-46.929-53.113-80.865-60.955v-32.335h48.839 c30.323,0,54.994-24.67,54.994-54.994v-26.98C471.2,97.428,466.723,92.95,461.2,92.95z M347.368,92.95h-56.715 c-28.241,0-51.217-22.976-51.217-51.217V24.27h56.715c28.241,0,51.217,22.976,51.217,51.218V92.95z M451.2,129.931 c0,19.295-15.698,34.994-34.994,34.994h-48.838v-16.98c0-19.295,15.698-34.994,34.994-34.994H451.2V129.931z"/> </g> </g><g> <g> <path d="M508.662,328.811c-8.728-19.767-31.911-28.744-51.678-20.021c-0.05,0.022-0.099,0.045-0.149,0.067l-65.337,30.131 c-5.016,2.313-7.206,8.254-4.894,13.269c2.313,5.016,8.254,7.205,13.269,4.894l65.257-30.094 c9.663-4.222,20.971,0.176,25.235,9.833c4.273,9.679-0.125,21.029-9.803,25.303l-133.706,59.035 c-21.186,9.355-45.234,8.812-65.977-1.495l-48.944-24.315c-26.08-12.957-56.317-13.641-82.954-1.88l-0.962,0.426l-36.579-82.846 l50.784-22.422c24.192-10.682,51.188-11.543,76.012-2.428l98.423,36.145c8.979,3.298,13.765,13.343,10.669,22.393 c-3.155,9.224-13.234,14.184-22.467,11.063l-76.11-25.743c-5.232-1.77-10.907,1.037-12.677,6.269s1.037,10.907,6.269,12.677 l76.11,25.743c3.985,1.348,8.044,1.988,12.039,1.988c15.698,0,30.409-9.882,35.76-25.521c6.587-19.254-3.595-40.627-22.697-47.642 l-98.422-36.145c-29.714-10.911-62.026-9.88-90.984,2.904l-51.111,22.567c-2.875-4.418-7.026-7.835-12.037-9.778 c-6.31-2.444-13.195-2.285-19.36,0.437L5.986,312.392C2.35,313.986,0,317.581,0,321.552V497.73c0,3.473,1.802,6.697,4.76,8.518 c1.602,0.985,3.418,1.482,5.24,1.482c1.542,0,3.087-0.356,4.508-1.074l127.46-64.389c6.061-2.757,10.716-7.686,13.125-13.905 c2.007-5.18,2.259-10.747,0.773-16l1.192-0.526c21.188-9.355,45.235-8.809,65.978,1.496l48.944,24.315 c26.079,12.957,56.315,13.642,82.954,1.879l133.707-59.035C508.408,371.762,517.389,348.578,508.662,328.811z M136.444,421.136 c-0.515,1.329-1.516,2.378-2.82,2.953c-0.159,0.07-0.315,0.145-0.47,0.223L20,481.474V437.7l29.578-14.525 c4.958-2.435,7.003-8.427,4.568-13.385s-8.429-7.003-13.384-4.568L20,415.417v-87.33l59.688-26.155 c1.304-0.575,2.754-0.609,4.082-0.095c1.329,0.515,2.378,1.517,2.954,2.82l47.038,106.532c0.004,0.01,0.008,0.019,0.012,0.028 l2.577,5.836C136.926,418.357,136.959,419.807,136.444,421.136z"/> </g> </g></symbol><symbol id="park" viewBox="0 0 512.009 512.009"><title>park</title><g transform="translate(-1)"> <g> <g> <path d="M504.473,401.071c4.713,0,8.533-3.821,8.533-8.533c0-4.713-3.821-8.533-8.533-8.533h-8.533 c0-4.713-3.82-8.533-8.533-8.533s-8.533,3.82-8.533,8.533H342.34c0-4.713-3.821-8.533-8.533-8.533 c-4.713,0-8.533,3.82-8.533,8.533h-8.533c-4.713,0-8.533,3.821-8.533,8.533c0,4.713,3.82,8.533,8.533,8.533h8.533v25.6h-8.533 c-4.713,0-8.533,3.82-8.533,8.533s3.82,8.533,8.533,8.533h8.533v8.533h-8.533c-4.713,0-8.533,3.821-8.533,8.533 s3.82,8.533,8.533,8.533h8.533v25.6H180.206v-70.6c12.623,7.113,26.865,10.856,41.354,10.867 c48.46-0.698,87.215-40.48,86.646-88.942c0.263-33.693-18.552-64.638-48.588-79.908c9.888-13.462,15.186-29.747,15.113-46.45 c0.297-36.863-25.562-68.771-61.688-76.117c9.141-20.158,7.57-43.556-4.185-62.31c-11.754-18.755-32.126-30.37-54.253-30.931 c-0.253,0-0.497,0.036-0.749,0.039c-4.543-29.367-29.99-50.923-59.704-50.577c-29.714,0.346-54.651,22.49-58.509,51.955 C14.035,56.104-0.882,75.998,1.197,97.902c2.079,21.904,20.473,38.635,42.476,38.636h49.741c0.77,2.454,1.683,4.861,2.734,7.208 c-36.124,7.371-61.97,39.291-61.667,76.158c-0.073,16.703,5.225,32.988,15.112,46.45c-30.035,15.271-48.85,46.215-48.587,79.908 c-0.57,48.461,38.186,88.244,86.646,88.942c14.489-0.011,28.731-3.753,41.354-10.867v70.6H9.54c-4.713,0-8.533,3.82-8.533,8.533 s3.82,8.533,8.533,8.533h494.933c4.713,0,8.533-3.82,8.533-8.533s-3.821-8.533-8.533-8.533h-8.533v-25.6h8.533 c4.713,0,8.533-3.82,8.533-8.533s-3.821-8.533-8.533-8.533h-8.533v-8.533h8.533c4.713,0,8.533-3.82,8.533-8.533 s-3.821-8.533-8.533-8.533h-8.533v-25.6H504.473z M90.277,116.521c0,0.991,0.112,1.965,0.156,2.95h-46.76 c-14.138,0-25.6-11.461-25.6-25.6c0-14.139,11.462-25.6,25.6-25.6c2.263,0.001,4.434-0.898,6.035-2.499 c1.6-1.6,2.499-3.771,2.499-6.035c-0.044-22.27,17.079-40.812,39.282-42.538c22.203-1.727,41.986,13.946,45.386,35.955 C109.043,61.655,90.096,87.421,90.277,116.521z M163.14,494.938h-17.067v-83.145c3.058-2.848,5.91-5.91,8.533-9.163 c2.623,3.253,5.475,6.315,8.533,9.162V494.938z M164.176,386.502l56.197-56.198c3.281-3.341,3.256-8.701-0.054-12.012 s-8.671-3.335-12.012-0.054l-45.167,45.166v-86.8l40.166-40.166c3.296-3.338,3.28-8.711-0.038-12.029 c-3.317-3.317-8.69-3.334-12.029-0.038l-28.1,28.1v-39.133c0-4.713-3.821-8.533-8.533-8.533c-4.713,0-8.533,3.821-8.533,8.533 v39.133l-28.1-28.1c-3.338-3.296-8.711-3.279-12.029,0.038s-3.334,8.69-0.038,12.029l40.166,40.167v86.8l-45.167-45.167 c-3.338-3.296-8.711-3.279-12.029,0.038c-3.317,3.317-3.334,8.691-0.038,12.029l56.197,56.197 c-12.493,19.629-34.118,31.55-57.385,31.636c-39.038-0.687-70.159-32.835-69.579-71.875 c-0.362-30.873,19.152-58.485,48.375-68.45c2.825-0.931,4.961-3.266,5.637-6.163c0.676-2.897-0.207-5.936-2.328-8.021 c-11.73-11.515-18.298-27.288-18.208-43.725c-0.558-32.561,25.193-59.507,57.746-60.425c3.523,0.311,6.89-1.513,8.554-4.634 c1.455-2.868,1.17-6.311-0.737-8.9c-6.325-8.508-9.749-18.823-9.767-29.425c-0.416-26.542,20.722-48.416,47.262-48.908 c26.541,0.492,47.679,22.366,47.262,48.908c-0.018,10.602-3.442,20.917-9.767,29.425c-1.868,2.611-2.102,6.052-0.604,8.892 c1.508,2.881,4.494,4.683,7.746,4.675c32.789,0.59,58.918,27.601,58.421,60.392c0.09,16.437-6.479,32.21-18.208,43.725 c-2.122,2.085-3.004,5.124-2.328,8.021s2.812,5.232,5.637,6.163c32.774,11.46,52.753,44.622,47.565,78.952 s-34.072,60.109-68.769,61.373C198.293,418.052,176.669,406.131,164.176,386.502z M478.873,494.938H342.34v-25.6h136.533V494.938 z M478.873,452.271H342.34v-8.533h136.533V452.271z M478.873,426.671H342.34v-25.6h136.533V426.671z"/> <path d="M367.94,213.338h102.4c22.002-0.001,40.396-16.732,42.476-38.636c2.079-21.904-12.838-41.798-34.447-45.939 c-3.905-29.73-29.244-51.958-59.229-51.958s-55.324,22.228-59.229,51.958c-21.609,4.141-36.526,24.035-34.447,45.939 S345.937,213.337,367.94,213.338z M367.94,145.071c2.263,0.001,4.434-0.898,6.035-2.499c1.6-1.6,2.499-3.771,2.499-6.035 c0-23.564,19.103-42.667,42.667-42.667s42.667,19.102,42.667,42.667c-0.001,2.263,0.898,4.434,2.499,6.035 c1.6,1.6,3.771,2.499,6.035,2.499c14.138,0,25.6,11.462,25.6,25.6s-11.461,25.6-25.6,25.6h-102.4 c-14.138,0-25.6-11.461-25.6-25.6S353.801,145.071,367.94,145.071z"/> </g> </g> </g></symbol><symbol id="garden" viewBox="0 0 512 512"><title>garden</title><g> <g> <path d="M474.015,446.961h-66.826v-22.553c10.209-0.77,27.745-3.945,39.948-16.148c17.787-17.788,16.397-46.915,16.328-48.146 l-0.369-6.706l-6.706-0.37c-1.23-0.07-30.36-1.458-48.147,16.329c-3.71,3.711-6.577,7.918-8.805,12.259 c-2.228-4.341-5.094-8.548-8.805-12.259c-17.787-17.786-46.917-16.397-48.147-16.329l-6.706,0.37l-0.369,6.706 c-0.068,1.231-1.459,30.358,16.328,48.146c12.407,12.407,30.322,15.481,40.449,16.184v22.517H267.179v-22.553 c10.21-0.77,27.745-3.945,39.948-16.148c17.787-17.788,16.397-46.915,16.328-48.146l-0.369-6.706l-6.706-0.37 c-1.229-0.07-30.36-1.458-48.147,16.329c-3.71,3.711-6.577,7.918-8.805,12.259c-2.227-4.341-5.094-8.548-8.805-12.259 c-17.787-17.786-46.917-16.397-48.147-16.329l-6.706,0.37l-0.369,6.706c-0.068,1.231-1.459,30.358,16.328,48.146 c12.407,12.407,30.322,15.481,40.449,16.184v22.517H127.168v-22.553c10.21-0.77,27.745-3.945,39.948-16.148 c17.787-17.788,16.397-46.915,16.328-48.146l-0.369-6.706l-6.706-0.37c-1.231-0.07-30.36-1.458-48.147,16.329 c-3.71,3.711-6.577,7.918-8.805,12.259c-2.227-4.341-5.094-8.548-8.805-12.259c-17.787-17.786-46.917-16.397-48.147-16.329 l-6.706,0.37l-0.369,6.706c-0.068,1.231-1.459,30.358,16.328,48.146c12.407,12.407,30.322,15.481,40.449,16.184v22.517H37.985 c-20.679,0-37.503,16.823-37.503,37.503V512h511.035v-27.537C511.517,463.784,494.694,446.961,474.015,446.961z M362.347,397.652 c-8.442-8.442-10.968-21.31-11.697-29.356c8.064,0.747,20.985,3.287,29.375,11.677c8.441,8.441,10.967,21.305,11.697,29.356 C383.658,408.582,370.737,406.042,362.347,397.652z M222.338,397.652c-8.442-8.442-10.968-21.31-11.697-29.356 c8.064,0.747,20.985,3.287,29.375,11.677c8.441,8.441,10.967,21.305,11.697,29.356 C243.648,408.582,230.727,406.042,222.338,397.652z M82.328,397.652c-8.442-8.442-10.968-21.31-11.697-29.356 c8.064,0.747,20.985,3.287,29.375,11.677c8.441,8.441,10.967,21.305,11.697,29.356C103.639,408.582,90.718,406.042,82.328,397.652 z M418.851,379.974c8.442-8.442,21.31-10.967,29.356-11.697c-0.747,8.065-3.287,20.985-11.678,29.376 c-8.44,8.441-21.305,10.966-29.356,11.696C407.92,401.284,410.461,388.364,418.851,379.974z M278.842,379.974 c8.442-8.442,21.31-10.967,29.356-11.697c-0.747,8.065-3.287,20.985-11.678,29.376c-8.44,8.441-21.305,10.966-29.356,11.696 C267.911,401.284,270.451,388.364,278.842,379.974z M138.832,379.974c8.442-8.442,21.31-10.967,29.356-11.697 c-0.747,8.065-3.287,20.985-11.678,29.376c-8.44,8.441-21.305,10.966-29.356,11.696 C127.901,401.284,130.441,388.364,138.832,379.974z M496.517,496.999H15.484v-12.536c0-12.408,10.095-22.502,22.502-22.502h436.03 c12.407,0,22.502,10.094,22.502,22.502V496.999z"/> </g> </g><g> <g> <path d="M472.394,119.159c10.481-12.888,16.183-28.846,16.183-45.685c0-19.385-7.549-37.611-21.256-51.318 c-29.544-29.543-77.61-29.541-107.153,0c-19.977,19.977-27.137,49.774-18.612,76.599l-48.734,48.735l46.25,46.25l-55.134,4.807 l3.345,41.622l104.191,5.972l15.2,15.2l103.951-103.952L472.394,119.159z M370.776,32.763c23.694-23.693,62.245-23.692,85.938,0 c10.875,10.875,16.863,25.333,16.863,40.711c-0.001,12.824-4.178,25-11.869,35l-64.935-64.935l-42.837,42.837 C350.544,67.067,356.675,46.864,370.776,32.763z M314.035,147.491l82.738-82.738l12.022,12.022l-82.738,82.738L314.035,147.491z M406.672,240.128l-8.636-8.635l-96.851-5.551l-1.104-13.744l72.352-6.308l-35.77-35.769l82.738-82.738l70.008,70.009 L406.672,240.128z"/> </g> </g><g> <g> <path d="M230.758,240.416l2.625,14.769c4.491-0.798,9.072-1.203,13.616-1.203v-15.001 C241.578,238.981,236.113,239.463,230.758,240.416z"/> </g> </g><g> <g> <path d="M210.916,246.367c-5.136,2.237-9.981,4.965-14.4,8.111l8.698,12.222c3.573-2.543,7.508-4.756,11.693-6.579 L210.916,246.367z"/> </g> </g><g> <g> <path d="M166.243,303.043c-0.966,5.103-1.539,10.51-1.7,16.067l14.995,0.435c0.138-4.769,0.624-9.382,1.444-13.71L166.243,303.043 z"/> </g> </g><g> <g> <path d="M181.258,269.02c-3.394,4.336-6.32,9.114-8.699,14.198l13.589,6.355c1.898-4.059,4.228-7.864,6.924-11.309L181.258,269.02 z"/> </g> </g><g> <g> <rect x="253.868" y="202.984" width="14.141" height="15.001"/> </g> </g><g> <g> <path d="M199.531,205.282c-5.269,1.064-10.477,2.512-15.478,4.305l5.063,14.121c4.321-1.548,8.825-2.801,13.384-3.722 L199.531,205.282z"/> </g> </g><g> <g> <path d="M118.4,271.883c-2.158,4.831-4.032,9.855-5.568,14.932l14.358,4.345c1.353-4.475,3.003-8.902,4.906-13.157L118.4,271.883z "/> </g> </g><g> <g> <path d="M222.998,202.979c-1.119,0-2.232,0.015-3.338,0.045l0.402,14.996c0.973-0.027,1.952-0.04,2.936-0.04h11.864v-15.001 H222.998z"/> </g> </g><g> <g> <path d="M108.554,306.545c-0.706,5.299-1.063,10.663-1.063,15.942h15.001c-0.001-4.619,0.313-9.317,0.932-13.962L108.554,306.545z "/> </g> </g><g> <g> <path d="M165.611,218.223c-4.59,2.698-9.04,5.772-13.226,9.139l9.401,11.69c3.619-2.909,7.465-5.566,11.428-7.896L165.611,218.223 z"/> </g> </g><g> <g> <path d="M137.769,241.435c-3.471,3.984-6.723,8.269-9.667,12.732l12.524,8.259c2.577-3.908,5.422-7.655,8.455-11.138 L137.769,241.435z"/> </g> </g><g> <g> <g> <rect x="362.046" y="163.681" transform="matrix(-0.7071 -0.7071 0.7071 -0.7071 509.8301 553.5272)" width="15.001" height="15"/> <rect x="383.261" y="184.895" transform="matrix(0.7071 -0.7071 0.7071 0.7071 -21.5993 332.6414)" width="15.001" height="15"/> </g> </g> </g><g> <g> <polygon points="441.677,130.873 431.069,141.48 446.98,157.391 431.069,173.302 441.677,183.909 468.195,157.391 "/> </g> </g><g> <g> <rect x="59.987" y="474.992" width="20.001" height="15.001"/> </g> </g><g> <g> <rect x="133.99" y="474.992" width="54.004" height="15.001"/> </g> </g><g> <g> <rect x="242.997" y="474.992" width="21.001" height="15.001"/> </g> </g><g> <g> <rect x="296.001" y="474.992" width="102.007" height="15.001"/> </g> </g><g> <g> <rect x="432.01" y="474.992" width="35.002" height="15.001"/> </g> </g></symbol><symbol id="watering-can" viewBox="0 0 425.874 425.874"><title>watering-can</title><path d="M273.352,415.874H143.99v-57.385c7.034,3.18,13.878,4.797,20.424,4.797c26.199,0,38.102-24.892,38.596-25.951 c1.103-2.364,0.201-5.18-2.07-6.464c-9.222-5.218-18.259-7.863-26.858-7.863c-13.591,0-23.56,6.413-30.092,12.735v-80.654 c0-2.762-2.239-5-5-5c-2.761,0-5,2.238-5,5v25.885c-5.927-6.76-14.934-11.877-28.19-11.877c-1.688,0-3.446,0.084-5.224,0.25 c-2.341,0.219-4.214,2.039-4.499,4.373c-0.091,0.749-2.121,18.477,7.974,29.876c5.368,6.063,12.949,9.137,22.533,9.137 c0,0,0.001,0,0.001,0c2.33,0,4.818-0.219,7.406-0.597v103.738H37.449c-2.761,0-5,2.238-5,5c0,2.762,2.239,5,5,5h235.903 c2.761,0,5-2.238,5-5C278.352,418.112,276.113,415.874,273.352,415.874z M174.082,333.008c5.507,0,11.356,1.427,17.437,4.249 c-3.968,5.921-12.831,16.029-27.104,16.029c-5.716,0-11.862-1.632-18.323-4.856C150.344,342.685,159.65,333.008,174.082,333.008z M126.583,302.732c-6.671,0-11.584-1.876-15.019-5.735c-4.687-5.268-5.618-13.121-5.704-17.9 c20.142,0.032,25.9,15.384,27.519,23.053C130.96,302.537,128.686,302.732,126.583,302.732z"/><g> <g> <g> <g> <path d="M136.246,190.249c-2.716-0.527-5.338,1.232-5.871,3.941c-0.891,4.529-1.618,9.319-2.163,14.235 c-0.304,2.745,1.675,5.217,4.419,5.521c0.187,0.02,0.373,0.03,0.557,0.03c2.515,0,4.68-1.893,4.963-4.449 c0.514-4.641,1.199-9.151,2.036-13.407C140.72,193.41,138.956,190.782,136.246,190.249z"/> <path d="M132.344,217.923c-2.79-0.128-5.089,2.029-5.205,4.787c-0.14,3.336-0.21,6.793-0.21,10.276 c0,2.761,2.239,4.999,5,4.999c2.762,0,5-2.239,4.999-5.001c0-3.343,0.067-6.659,0.201-9.857 C137.246,220.369,135.103,218.039,132.344,217.923z"/> <path d="M148.159,170.612c1.152-2.509,0.052-5.478-2.458-6.63c-2.51-1.151-5.478-0.052-6.63,2.457 c-1.956,4.26-3.7,8.863-5.184,13.683c-0.813,2.639,0.667,5.438,3.307,6.25c0.49,0.151,0.986,0.223,1.473,0.223 c2.137,0,4.115-1.381,4.777-3.529C144.799,178.664,146.386,174.475,148.159,170.612z"/> <path d="M147.628,160.476c0.86,0.584,1.837,0.864,2.804,0.864c1.601,0,3.174-0.768,4.141-2.192 c2.509-3.695,5.298-7.039,8.289-9.936c1.983-1.921,2.034-5.087,0.112-7.07c-1.921-1.981-5.087-2.033-7.07-0.111 c-3.48,3.372-6.712,7.241-9.604,11.501C144.749,155.814,145.344,158.925,147.628,160.476z"/> <path d="M153.131,184.994c-2.681-0.661-5.391,0.976-6.053,3.656c-1.1,4.454-2.02,9.237-2.733,14.218 c-0.392,2.733,1.506,5.267,4.24,5.658c0.241,0.035,0.48,0.052,0.716,0.052c2.447,0,4.586-1.799,4.943-4.292 c0.667-4.652,1.522-9.106,2.542-13.239C157.448,188.366,155.812,185.656,153.131,184.994z"/> <path d="M148.193,212.499c-2.76-0.16-5.137,1.904-5.319,4.659c-0.302,4.561-0.469,9.365-0.497,14.279 c-0.016,2.761,2.21,5.013,4.971,5.028h0.029c2.748,0,4.984-2.22,5-4.972c0.027-4.713,0.187-9.314,0.476-13.676 C153.034,215.063,150.948,212.682,148.193,212.499z"/> <path d="M165.139,159.857c-2.326-1.49-5.417-0.811-6.907,1.514c-2.53,3.95-4.796,8.429-6.734,13.312 c-1.018,2.566,0.236,5.474,2.803,6.492c0.605,0.24,1.229,0.354,1.843,0.354c1.989,0,3.87-1.195,4.649-3.156 c1.703-4.289,3.674-8.194,5.86-11.608C168.142,164.439,167.464,161.347,165.139,159.857z"/> </g> <path d="M391.829,97.955l-29.082-27.03l-1.486-45.508c-0.021-6.78-2.671-13.151-7.468-17.946C348.975,2.653,342.57,0,335.758,0 s-13.216,2.653-18.033,7.47c-4.416,4.415-6.887,10.163-7.334,16.075c-1.488-0.192-3.042,0.269-4.182,1.408l-23.542,23.542 l-34.324-34.324c-0.938-0.939-2.209-1.465-3.536-1.465s-2.598,0.527-3.536,1.465l-9.167,9.168c-1.953,1.952-1.953,5.118,0,7.07 l34.324,34.325l-23.544,23.544c-1.902,1.902-1.958,4.969-0.126,6.939l11.097,11.939l-19.999,19.998l-32.514,0.562 l-14.545-12.604c-1.493-1.294-3.608-1.586-5.398-0.749c-1.789,0.839-2.916,2.653-2.876,4.629l0.185,9.14 c-2.663,0.799-6.4,2.215-10.713,4.706c-2.391,1.382-3.21,4.439-1.829,6.831c0.926,1.604,2.606,2.5,4.335,2.5 c0.848,0,1.708-0.217,2.496-0.671c2.22-1.282,4.226-2.191,5.924-2.853l0.083,4.141c-2.688,1.072-6.589,3.1-10.877,6.869 c-2.074,1.823-2.277,4.982-0.454,7.057c0.989,1.124,2.37,1.698,3.757,1.698c1.172,0,2.35-0.41,3.299-1.245 c1.631-1.434,3.152-2.501,4.498-3.316l0.149,7.357c0.04,1.98,1.243,3.748,3.069,4.512c0.623,0.261,1.279,0.388,1.929,0.388 c1.255,0,2.492-0.473,3.438-1.369l14.531-13.755l92.793,0.59l20.75,22.325c0.924,0.994,2.213,1.57,3.571,1.595 c0.031,0.001,0.061,0.001,0.091,0.001c1.325,0,2.597-0.526,3.536-1.465l68.875-68.875c0.96-0.96,1.488-2.269,1.463-3.627 C393.399,100.168,392.824,98.879,391.829,97.955z M189.147,149.705l-0.398-19.669l5.91,5.121l0.567,8.793L189.147,149.705z M324.796,14.541c2.928-2.929,6.821-4.541,10.962-4.541c4.141,0,8.035,1.613,10.963,4.542c2.928,2.927,4.54,6.819,4.539,10.96 c0,0.055,0.001,0.109,0.003,0.164l1.165,35.667l-29.865-27.758C318.845,27.518,319.742,19.595,324.796,14.541z M244.808,24.777 l37.824,37.825l-2.097,2.096l-37.824-37.824L244.808,24.777z M253.366,91.94l20.135-20.135l3.5,3.499 c0.977,0.976,2.256,1.465,3.536,1.465c1.279,0,2.559-0.488,3.535-1.464l9.168-9.167c0.938-0.938,1.465-2.21,1.465-3.536 c0-1.326-0.527-2.598-1.464-3.535l-3.501-3.501l20.134-20.134l8.141,7.566l-57.082,57.082L253.366,91.94z M260.668,114.486 l11.167,12.014l-23.587,0.407L260.668,114.486z M205.058,140.998l-0.215-3.34l76.142-1.315l4.804,5.169L205.058,140.998z M267.745,107.41l57.598-57.599l43.281,40.228l-60.65,60.652L267.745,107.41z M319.682,163.289l-4.897-5.269l61.168-61.169 l5.27,4.897L319.682,163.289z"/> </g> </g> </g></symbol><symbol id="watering-can-1" viewBox="0 0 463 463"><title>watering-can-1</title><path d="M460.804,218.765l-56.568-56.568c-2.929-2.929-7.678-2.929-10.606,0l-4.889,4.888c-11.419,11.421-14.362,28.15-8.845,42.316 l-101.121,86.061c-0.403-1.834-1.335-3.47-2.631-4.74c1.821-3.336,2.857-7.16,2.857-11.221V177.142c4.899-4.31,8-10.619,8-17.641 c0-12.958-10.542-23.5-23.5-23.5h-72.502V71.5c0-12.958-10.542-23.5-23.5-23.5s-23.5,10.542-23.5,23.5V136H71.5 C58.542,136,48,146.542,48,159.5c0,7.023,3.101,13.332,8,17.641V192H39.5C17.72,192,0,209.72,0,231.5v16 C0,278.103,24.897,303,55.5,303H56v8.5c0,6.177,2.399,11.801,6.31,16c-3.911,4.199-6.31,9.823-6.31,16v14 c0,2.654,1.097,5.054,2.857,6.779C57.036,367.616,56,371.439,56,375.5v16c0,12.958,10.542,23.5,23.5,23.5h176 c12.958,0,23.5-10.542,23.5-23.5v-5.039l133.977-143.212c0.083-0.088,0.154-0.183,0.231-0.274c4.635,1.868,9.63,2.853,14.777,2.853 c10.551,0,20.47-4.109,27.931-11.569l4.888-4.888C463.732,226.443,463.732,221.694,460.804,218.765z M71,343.5 c0-4.687,3.813-8.5,8.5-8.5h176c4.687,0,8.5,3.813,8.5,8.5s-3.813,8.5-8.5,8.5h-176C74.813,352,71,348.187,71,343.5z M71,311.5 c0-4.687,3.813-8.5,8.5-8.5h176c4.687,0,8.5,3.813,8.5,8.5s-3.813,8.5-8.5,8.5h-176C74.813,320,71,316.187,71,311.5z M263.5,151 c4.687,0,8.5,3.813,8.5,8.5s-3.813,8.5-8.5,8.5h-72.502v-17H263.5z M167.498,63c4.687,0,8.5,3.813,8.5,8.5v103.981 c0,0.007-0.001,0.013-0.001,0.019c0,0.003,0,0.006,0,0.01c-0.005,4.683-3.816,8.49-8.5,8.49c-4.687,0-8.5-3.813-8.5-8.5v-31.961 c0-0.013,0.002-0.026,0.002-0.039s-0.002-0.026-0.002-0.039V71.5C158.998,66.813,162.812,63,167.498,63z M71.5,151h72.498v17H71.5 c-4.687,0-8.5-3.813-8.5-8.5S66.813,151,71.5,151z M71.5,183h73.732c3.138,9.29,11.93,16,22.266,16s19.128-6.71,22.266-16H263.5 c0.168,0,0.333-0.009,0.5-0.013V279.5c0,4.687-3.813,8.5-8.5,8.5h-176c-4.687,0-8.5-3.813-8.5-8.5v-96.513 C71.167,182.991,71.332,183,71.5,183z M15,247.5v-16c0-13.509,10.99-24.5,24.5-24.5H56v72.5c0,2.997,0.57,5.862,1.597,8.5H55.5 C33.168,288,15,269.832,15,247.5z M264,391.5c0,4.687-3.813,8.5-8.5,8.5h-176c-4.687,0-8.5-3.813-8.5-8.5v-16 c0-4.687,3.813-8.5,8.5-8.5h176c4.687,0,8.5,3.813,8.5,8.5V391.5z M277.184,366.446c-0.311-0.742-0.658-1.466-1.041-2.167 c1.76-1.725,2.857-4.125,2.857-6.779v-14c0-6.177-2.399-11.801-6.31-16c3.109-3.339,5.262-7.578,6.013-12.281l109.314-93.034 c0.241,0.254,0.474,0.512,0.723,0.761l11.314,11.314c0.137,0.137,0.281,0.265,0.419,0.399L277.184,366.446z M427.985,230.829 c-6.545,0-12.697-2.548-17.324-7.176l-11.313-11.314c-9.414-9.414-9.551-24.645-0.411-34.228l45.952,45.952 C440.313,228.431,434.333,230.829,427.985,230.829z"/></symbol><symbol id="sweeping-broom" viewBox="0 0 45.387 45.387"><title>sweeping-broom</title><path d="M30.118,33.352c1.771-0.29,3.099-0.79,4.089-1.161c0.231-0.089,0.447-0.169,0.65-0.239 c-3.911-0.859-5.492-2.471-5.34-0.729C29.563,31.726,29.76,32.479,30.118,33.352z"/><path d="M38.773,34.568c-0.043,0.497-0.175,1.106-0.395,1.783c3.396,0.238,6.522-0.625,6.838-0.729 c-0.537-2.023-2.471-3.396-4.644-3.259c-0.864,0.055-1.675,0.056-2.43,0.019c0,0.001,0.001,0.001,0.001,0.001 C38.894,33.199,38.804,34.229,38.773,34.568z"/><path d="M37.964,37.465c-0.384,0.909-0.901,1.886-1.557,2.85c1.417,0.65,3.061,0.994,4.936,0.832 c2.012-0.177,3.588-1.679,3.945-3.567C44.446,37.732,41.171,38.295,37.964,37.465z"/><path d="M25.437,33.538c0.139,0,0.277,0.004,0.419,0.013c0.036,0.003,0.07,0.004,0.106,0.006l-1.214-2.822 c-0.201-0.468-0.437-0.908-0.698-1.325L6.883,36.79c0.121,0.478,0.281,0.952,0.481,1.419l2.589,6.021 c0.2,0.467,0.577,0.832,1.048,1.021c0.471,0.188,0.996,0.18,1.462-0.021l0.812-0.352c0.206-0.089,0.32-0.312,0.269-0.531 l-0.619-2.64c-0.011-0.049,0.013-0.099,0.058-0.118c0.045-0.021,0.099-0.007,0.128,0.034l1.602,2.241 c0.127,0.177,0.36,0.241,0.561,0.154l2.471-1.062c0.186-0.08,0.299-0.271,0.278-0.474l-0.196-1.952 c-0.005-0.047,0.021-0.09,0.064-0.106c0.042-0.018,0.091-0.005,0.119,0.031l1.199,1.5c0.029,0.037,0.064,0.067,0.103,0.094 c-0.295-0.834-0.421-1.742-0.339-2.68C19.265,36.046,22.043,33.538,25.437,33.538z"/><path d="M6.63,33.646l15.313-6.585c-2.139-1.693-4.957-2.419-7.711-1.875L3.92,1.206C3.486,0.194,2.315-0.272,1.304,0.163 C0.293,0.598-0.174,1.77,0.261,2.778L10.574,26.76C8.283,28.384,6.87,30.928,6.63,33.646z"/><path d="M36.371,33.619c-1.019,0-3.907,1.964-9.241,1.964c-0.448,0-0.916-0.015-1.397-0.044c-0.1-0.007-0.196-0.01-0.295-0.01 c-2.049,0-3.833,1.337-4.347,3.269c3.874,1.994,9.591-0.339,11.196-1.362c0.154-0.099,0.328-0.158,0.472-0.04 c0.142,0.119,0.185,0.337,0.04,0.474c-0.753,0.705-5.016,5.014-11.778,2.885c0.358,1.891,1.935,3.392,3.944,3.566 c0.312,0.026,0.618,0.041,0.919,0.041c7.211,0,10.703-7.639,10.907-9.966C36.838,33.831,36.706,33.619,36.371,33.619z"/></symbol><symbol id="tree" viewBox="0 0 512.001 512.001"><title>tree</title><g> <g> <path d="M250,123c-5.51,0-10,4.49-10,10s4.49,10,10,10s10-4.49,10-10S255.51,123,250,123z"/> </g> </g><g> <g> <path d="M412,200c-5.51,0-10,4.49-10,10s4.49,10,10,10s10-4.49,10-10S417.51,200,412,200z"/> </g> </g><g> <g> <path d="M502,492c-5.51,0-10,4.49-10,10s4.49,10,10,10s10-4.49,10-10S507.51,492,502,492z"/> </g> </g><g> <g> <path d="M214.428,382.406c0.091-0.072,0.181-0.145,0.27-0.22c1.345-1.14,31.448-26.657,48.789-42.186h49.999 c17.923,0,33.821-6.625,45.976-19.16c17.403-17.946,22.812-43.681,24.413-60.652h75.376c29.086,0,52.75-23.889,52.75-53.252 s-23.664-53.252-52.75-53.252c-0.625,0-1.249,0.059-1.864,0.175l-1.929,0.366c-8.952-19.925-25.913-34.627-46.278-40.709 c-2.611-33.07-30.062-59.182-63.468-59.182c-0.625,0-1.25,0.059-1.864,0.175l-4.432,0.841C325.253,21.904,292.841,0,256.207,0 c-18.893,0-37.132,6.647-52.746,19.224c-11.883,9.571-21.696,22.29-28.235,36.449c-5.423-0.972-10.955-1.34-13.893-1.34 c-13.329,0-28.077,7.104-39.451,19.004c-5.48,5.733-9.827,12.155-12.976,18.979C102.978,90.161,96.602,89,90,89 c-19.724,0-38.021,11.889-47.774,30.333C39.993,119.083,38.069,119,37,119c-17.11,0-37,17.473-37,40c0,22.056,17.944,40,40,40 h13.504c1.459,16.939,6.707,43.47,24.52,61.84C90.179,273.375,106.077,280,124,280h45.838c0.98,0,1.9,0.147,2.383,1.921 c1.058,3.881-1.548,10.26-9.766,15.097C116.377,324.135,91,365.326,91,413c0,30.27,4.779,56.756,14.223,79H10 c-5.51,0-10,4.49-10,10s4.49,10,10,10h452c5.51,0,10-4.49,10-10s-4.49-10-10-10H229.439C220.721,484.852,191,457.636,191,419 C191,402.66,207.384,387.966,214.428,382.406z M439.567,168.61c2.926,9.29,13.482,6.428,20.561,5.085 c15.327,0.411,28.056,11.568,31.149,26.305H452c-5.51,0-10,4.49-10,10s4.49,10,10,10h37.363 c-5.01,11.859-16.62,20.188-30.113,20.188h-134.5c-18.059,0-32.75-14.917-32.75-33.252c0-18.727,13.157-33.252,24.476-33.252 c7.4,0,17.337,6.888,21.189-4.017c8.162-23.101,28.861-39.235,50.336-39.235C411.656,130.432,432.379,145.774,439.567,168.61z M244.501,183h32.608c-3.239,7.288-5.109,15.452-5.109,23.936c0,28.899,22.926,52.478,51.379,53.217 c-1.3,7.788-3.681,15.504-6.991,18.918c-0.581,0.599-0.901,0.929-2.902,0.929h-46.479c-12.41,0-22.506-10.096-22.506-22.506V183z M161.339,74.333c8.577,0.002,25.002,8.603,29.22-3.338C201.167,40.97,228.163,20,256.207,20 c30.841,0,57.855,19.993,67.221,49.751c3.231,10.265,15.665,6.016,23.175,4.592c20.929,0.428,38.281,15.86,42.04,36.101 c-0.215-0.002-0.428-0.012-0.644-0.012c-14.043,0-27.551,4.556-39.112,12.568H290c-5.51,0-10,4.49-10,10s4.49,10,10,10h39.012 c-2.424,3.501-4.612,7.227-6.518,11.162c-0.025,0.123-11.539,0.68-12.486,0.79c-6.869,0.793-12.569,3.631-17.949,8.048H179.8 c2.316-23.219-16.486-44-39.8-44c-0.323,0-5-11-13.757-16.431C133.148,85.719,149.676,74.333,161.339,74.333z M184.412,183 l-0.179,20.371C184.152,212.54,176.627,220,167.458,220H124c-1.996,0-2.313-0.325-2.888-0.914 c-3.432-3.518-5.877-11.874-7.144-20.086H140c13.058,0,24.673-6.291,31.978-16H184.412z M40,179c-11.028,0-20-8.972-20-20 c0-10.846,10.44-19.998,16.998-20c7.098-0.002,16.962,5.042,20.479-4.795C61.815,122.065,73.844,109,90,109 c15.307,0,28.71,9.792,33.351,24.367c2.649,8.318,10.858,6.893,17.486,5.65C151.478,139.458,160,148.253,160,159 c0,11.028-8.972,20-20,20H40z M171,419c0,32.301,15.975,57.387,29.732,73h-23.633c-1.727-1.317-4.513-3.781-7.679-7.9 c-6.78-8.839-11.79-20.559-14.89-34.838c-1.144-5.27-6.626-8.8-11.889-7.662c-5.346,1.156-8.83,6.546-7.662,11.891 c3.83,17.724,9.97,30.178,15.528,38.51h-23.235C116.471,470.857,111,444.317,111,413c0-40.3,21.876-75.369,61.6-98.746 c17.36-10.216,22.011-26.241,18.919-37.59C188.761,266.541,180.251,260,169.838,260c0,0-45.769,0-45.838,0 c-32.928,0-47.559-31.845-50.477-61h20.062c2.06,18.993,9.804,41,30.414,41h43.458c20.101,0,36.598-16.353,36.774-36.453 c0,0,0.102-11.639,0.18-20.547H224.5v74.494c0,23.438,19.068,42.506,42.506,42.506c0,0,46.36,0,46.479,0 c19.937,0,27.971-21.159,30.28-39.813h20.076C360.665,289.029,346.022,320,313.485,320h-53.838c-2.483,0-4.877,0.924-6.717,2.592 c-15.88,14.398-48.711,42.257-51.035,44.227C190.288,376.01,171,394.913,171,419z"/> </g> </g><g> <g> <path d="M190.702,338.022c-2.886-4.355-9.285-5.836-13.861-2.812c-14.419,9.549-25.639,20.749-33.349,33.258 c-2.875,4.664-1.373,10.897,3.268,13.761c4.649,2.869,10.925,1.356,13.762-3.279c6.158-10.02,15.358-19.13,27.368-27.07 C192.48,348.831,193.75,342.622,190.702,338.022z"/> </g> </g><g> <g> <circle cx="141" cy="412" r="10"/> </g> </g></symbol><symbol id="broom" viewBox="0 0 512 512"><title>broom</title><path d="M504.861,7.139c-9.52-9.519-25.008-9.518-34.528,0L300.661,176.813c-0.002,0.002-0.004,0.004-0.008,0.006l-71.245,71.247 l-97.089,0.185c-3.774-2.704-8.272-4.183-13.007-4.183c-5.986,0-11.615,2.332-15.848,6.565 c-4.552,4.552-6.711,10.593-6.519,16.571l-93.691,70.07c-1.885,1.409-3.064,3.568-3.233,5.915 c-0.169,2.348,0.691,4.653,2.356,6.317l32.383,32.383c0.002,0.002,0.004,0.004,0.006,0.006l127.73,127.729 c1.527,1.526,3.592,2.375,5.736,2.375c0.194,0,0.387-0.006,0.581-0.021c2.347-0.168,4.506-1.348,5.915-3.232l70.062-93.679 c0.244,0.008,0.486,0.036,0.732,0.036c5.986,0,11.615-2.331,15.848-6.565c7.845-7.845,8.622-20.095,2.38-28.844l0.184-97.099 l156.698-156.698c3.168-3.168,3.168-8.304,0-11.471c-3.168-3.168-8.303-3.169-11.472,0l-79.715,79.715l-11.583-11.583 L481.804,18.611c3.195-3.194,8.392-3.195,11.585,0c3.194,3.194,3.193,8.39-0.001,11.583l-66.941,66.942 c-3.168,3.168-3.168,8.304,0,11.471c3.169,3.168,8.304,3.168,11.472,0l66.942-66.941C514.379,32.147,514.38,16.658,504.861,7.139 z M229.42,264.29l18.291,18.291l-0.153,80.451l-45.65-45.65l-52.938-52.938L229.42,264.29z M167.344,491.528l-20.566-20.566 l28.347-35.315c2.804-3.492,2.245-8.598-1.248-11.403c-3.496-2.804-8.601-2.245-11.404,1.248l-27.235,33.93l-19.927-19.926 l30.878-33.643c3.029-3.301,2.81-8.432-0.491-11.461c-3.301-3.031-8.431-2.81-11.461,0.491l-30.408,33.131l-19.839-19.839 l32.312-29.6c3.303-3.026,3.528-8.157,0.502-11.461c-3.027-3.302-8.158-3.527-11.461-0.502l-32.835,30.08l-19.946-19.946 l34.77-28.039c3.488-2.812,4.034-7.918,1.222-11.406c-2.812-3.487-7.918-4.033-11.406-1.222L41.025,365.21L20.47,344.656 l83.139-62.18L229.524,408.39L167.344,491.528z M249.898,397.065c-1.169,1.169-2.723,1.814-4.376,1.814 c-1.653,0-3.207-0.645-4.376-1.814L114.932,270.854c-2.41-2.414-2.41-6.338,0.002-8.75c1.169-1.169,2.723-1.814,4.377-1.814 c1.653,0,3.207,0.643,4.376,1.814l126.21,126.209C252.311,390.727,252.311,394.653,249.898,397.065z M317.973,205.611 l-62.143,62.144l-11.583-11.583l62.144-62.144L317.973,205.611z"/><path d="M232.645,311.051c4.233-4.232,6.565-9.861,6.565-15.847s-2.331-11.615-6.565-15.85 c-4.233-4.231-9.862-6.562-15.847-6.562c-5.986,0-11.614,2.331-15.847,6.563c-4.233,4.234-6.565,9.862-6.565,15.849 s2.332,11.615,6.564,15.846c4.232,4.233,9.861,6.565,15.847,6.565C222.783,317.615,228.411,315.284,232.645,311.051z M212.418,299.578c-1.168-1.167-1.812-2.721-1.812-4.374c0.001-1.655,0.645-3.208,1.814-4.377 c1.169-1.168,2.723-1.813,4.376-1.813c1.654,0,3.209,0.645,4.376,1.812c1.169,1.169,1.813,2.724,1.813,4.378 c0,1.653-0.644,3.207-1.813,4.375c-1.169,1.169-2.723,1.814-4.377,1.814C215.143,301.392,213.589,300.749,212.418,299.578z"/></symbol><symbol id="house" viewBox="0 0 487.101 487.101"><title>house</title><path d="M457.101,386.796h-30V283.866c34.192-6.968,60-37.271,60-73.491c0-41.355-33.645-75-75-75s-75,33.645-75,75 c0,36.219,25.808,66.522,60,73.491v102.931h-30v-48.421h-30v48.421h-30V144.798L153.55,31.581L89.534,78.782V26.883h-30v74.019 L0,144.798v315.419h307.101v-43.421h30v43.421h30v-43.421h30v43.421h30v-43.421h30v43.421h30V338.375h-30V386.796z M367.101,210.375c0-24.813,20.187-45,45-45s45,20.187,45,45s-20.187,45-45,45S367.101,235.188,367.101,210.375z M195.134,430.217 h-83.167V277.375h83.167V430.217z M277.101,430.217h-51.967V247.375H81.967v182.842H30V159.952l123.55-91.098l123.55,91.098 V430.217z"/></symbol><symbol id="farmer" viewBox="0 0 496 496"><title>farmer</title><path d="M447.816,390.192c-5.376-32.232-27.976-58.68-58.976-69.016L320,298.232V288h-16v15.024l-11.936,47.752L259.752,312 h-23.504l-32.312,38.776L192,303.024V288h-16v10.232l-68.832,22.944c-31,10.336-53.6,36.784-58.976,69.016L30.552,496H248 h217.448L447.816,390.192z M344,323.104l24,8V416h-24V323.104z M168,317.768l10.336-3.448l17.728,70.904L243.752,328h8.496 l47.688,57.224l17.728-70.904L328,317.768V416H168V317.768z M128,331.104l24-8V416h-24.048L128,331.104z M112,415.56L104.84,480 H49.448l14.52-87.168c4.384-26.296,22.784-47.864,48.032-56.376V415.56z M248,480H120.936l5.336-48h243.496l5.296,48H248z M391.16,480L384,415.56v-79.104c25.248,8.512,43.648,30.08,48.032,56.376L446.552,480H391.16z"/><path d="M94.384,179.128l3.232-15.672c-46.288-9.528-49.6-19.376-49.616-19.448C49.376,133.152,121.208,112,248,112 s198.624,21.152,200,31.984c-0.016,0.096-3.328,9.944-49.616,19.472l3.232,15.672C444.176,170.36,464,159.2,464,144 c0-21.4-44.872-33.92-97.416-40.776C358.352,44.728,307.84,0,248,0c-59.84,0-110.352,44.728-118.584,103.224 C76.872,110.08,32,122.6,32,144C32,159.2,51.824,170.36,94.384,179.128z M248,16c50.424,0,93.24,36.648,102.136,85.28 C314.064,97.44,276.272,96,248,96c-28.272,0-66.064,1.44-102.136,5.28C154.76,52.648,197.576,16,248,16z"/><path d="M344.84,132.752C314.968,129.6,282.384,128,248,128c-34.384,0-66.968,1.6-96.84,4.752l-7.16,0.76v3.296 c-18.232,3.72-32,19.872-32,39.192c0,20.528,15.6,37.296,35.536,39.552c4.08,14.04,11.616,26.912,22.24,37.536l31.192,31.2 c7.552,7.552,17.6,11.712,28.288,11.712h37.488c10.688,0,20.736-4.16,28.288-11.712l31.192-31.2 c10.624-10.624,18.152-23.504,22.24-37.536C368.4,213.296,384,196.528,384,176c0-19.312-13.768-35.472-32-39.192v-3.296 L344.84,132.752z M128,176c0-10.416,6.712-19.216,16-22.528v37.392c0,2.616,0.152,5.208,0.376,7.784 C134.896,195.44,128,186.552,128,176z M336,190.864c0,19.232-7.496,37.312-21.088,50.912l-31.192,31.2 c-4.536,4.528-10.56,7.024-16.976,7.024h-37.488c-6.416,0-12.448-2.496-16.976-7.024l-31.192-31.2 c-13.592-13.6-21.088-31.68-21.088-50.912v-42.92c27.344-2.616,56.904-3.944,88-3.944s60.656,1.328,88,3.944V190.864z M368,176 c0,10.552-6.896,19.44-16.376,22.64c0.224-2.568,0.376-5.16,0.376-7.776v-37.392C361.288,156.784,368,165.584,368,176z"/><path d="M200,224v24h96v-24c0-13.232-10.768-24-24-24h-48C210.768,200,200,210.768,200,224z M280,224v8h-64v-8 c0-4.408,3.584-8,8-8h48C276.416,216,280,219.592,280,224z"/><rect x="240" y="352" width="16" height="16"/><rect x="240" y="384" width="16" height="16"/></symbol><symbol id="plant" viewBox="0 0 512 512"><title>plant</title><path d="M503.553,352.374c-19.964-28.098-55.516-38.182-86.143-27.378c-14.558-52.953-60.158-92.103-115.215-98.184v-60.87h15.01 c57.934,0,105.068-47.133,105.068-105.068V15.845h-45.029c-38.176,0-71.658,20.468-90.058,51.004 c-18.4-30.536-51.882-51.004-90.058-51.004h-45.029v45.029c0,57.934,47.133,105.068,105.068,105.068h15.01v60.901 c-38.089,4.304-72.919,24.788-95.197,56.122c-32.409-7.842-67.841-0.148-94.29,23.128l-11.302,9.945H0v180.116 c13.917,0,290.955,0,337.242,0L512,364.263L503.553,352.374z M377.243,45.865h15.01v15.01c0,39.184-30.191,71.431-68.53,74.747 l34.115-34.115L336.611,80.28l-34.115,34.115C305.812,76.056,338.059,45.865,377.243,45.865z M237.759,80.28l-21.227,21.227 l34.115,34.115c-38.339-3.316-68.53-35.563-68.53-74.747v-15.01h15.01c39.184,0,71.431,30.191,74.747,68.53L237.759,80.28z M62.04,466.135H30.019V346.058H62.04V466.135z M287.185,256c50.507,0,93.3,35.642,103.009,84.265l-54.366,35.812h-18.665 c9.444-12.552,15.051-28.147,15.051-45.029v-15.01h-93.74c-8.285,0-11.631-5.961-16.966-9.945 c-4.951-4.357-10.217-8.168-15.719-11.435C225.583,270.496,255.507,256,287.185,256z M327.186,466.135H92.059V337.834l10.46-9.204 c28.264-24.874,70.894-24.873,99.158,0c3.976,2.682,14.948,17.328,36.797,17.328h61.148 c-6.194,17.472-22.888,30.119-42.457,30.119h-61.318v30.019h148.98l72.68-47.876c16.145-10.633,36.462-9.67,51.243,1.075 L327.186,466.135z"/></symbol><symbol id="add" viewBox="0 0 42 42"><title>add</title><polygon points="42,20 22,20 22,0 20,0 20,20 0,20 0,22 20,22 20,42 22,42 22,22 42,22 "/></symbol><symbol id="unlink" viewBox="0 0 52.974 52.974"><title>unlink</title><path d="M49.467,3.51c-4.677-4.679-12.291-4.681-16.97,0l-9.192,9.192c-0.391,0.391-0.391,1.023,0,1.414s1.023,0.391,1.414,0 l9.192-9.192c1.88-1.88,4.391-2.915,7.07-2.915c2.681,0,5.191,1.036,7.071,2.916s2.916,4.391,2.916,7.071 c0,2.68-1.036,5.19-2.916,7.07L36.033,31.088c-3.898,3.898-10.244,3.898-14.143,0c-0.391-0.391-1.023-0.391-1.414,0 s-0.391,1.023,0,1.414c2.34,2.339,5.412,3.509,8.485,3.509s6.146-1.17,8.485-3.509L49.467,20.48 c2.258-2.258,3.502-5.271,3.502-8.485C52.969,8.781,51.725,5.768,49.467,3.51z"/><path d="M26.84,40.279l-7.778,7.778c-1.88,1.88-4.391,2.916-7.071,2.916c-2.68,0-5.19-1.036-7.071-2.916 c-3.898-3.898-3.898-10.243,0-14.142l11.314-11.314c3.899-3.898,10.244-3.896,14.142,0c0.391,0.391,1.023,0.391,1.414,0 s0.391-1.023,0-1.414c-4.677-4.679-12.291-4.681-16.97,0L3.505,32.502c-2.258,2.258-3.501,5.271-3.501,8.485 c0,3.214,1.244,6.227,3.502,8.484s5.271,3.502,8.484,3.502c3.215,0,6.228-1.244,8.485-3.502l7.778-7.778 c0.391-0.391,0.391-1.023,0-1.414S27.231,39.889,26.84,40.279z"/></symbol><symbol id="placeholder" viewBox="0 0 60 60"><title>placeholder</title><path d="M30,26c3.86,0,7-3.141,7-7s-3.14-7-7-7s-7,3.141-7,7S26.14,26,30,26z M30,14c2.757,0,5,2.243,5,5s-2.243,5-5,5 s-5-2.243-5-5S27.243,14,30,14z"/><path d="M29.823,54.757L45.164,32.6c5.754-7.671,4.922-20.28-1.781-26.982C39.761,1.995,34.945,0,29.823,0 s-9.938,1.995-13.56,5.617c-6.703,6.702-7.535,19.311-1.804,26.952L29.823,54.757z M17.677,7.031C20.922,3.787,25.235,2,29.823,2 s8.901,1.787,12.146,5.031c6.05,6.049,6.795,17.437,1.573,24.399L29.823,51.243L16.082,31.4 C10.882,24.468,11.628,13.08,17.677,7.031z"/><path d="M42.117,43.007c-0.55-0.067-1.046,0.327-1.11,0.876s0.328,1.046,0.876,1.11C52.399,46.231,58,49.567,58,51.5 c0,2.714-10.652,6.5-28,6.5S2,54.214,2,51.5c0-1.933,5.601-5.269,16.117-6.507c0.548-0.064,0.94-0.562,0.876-1.11 c-0.065-0.549-0.561-0.945-1.11-0.876C7.354,44.247,0,47.739,0,51.5C0,55.724,10.305,60,30,60s30-4.276,30-8.5 C60,47.739,52.646,44.247,42.117,43.007z"/></symbol><symbol id="smartphone" viewBox="0 0 60 60"><title>smartphone</title><path d="M56.612,4.569c-0.391-0.391-1.023-0.391-1.414,0s-0.391,1.023,0,1.414c3.736,3.736,3.736,9.815,0,13.552 c-0.391,0.391-0.391,1.023,0,1.414c0.195,0.195,0.451,0.293,0.707,0.293s0.512-0.098,0.707-0.293 C61.128,16.434,61.128,9.085,56.612,4.569z"/><path d="M52.401,6.845c-0.391-0.391-1.023-0.391-1.414,0s-0.391,1.023,0,1.414c1.237,1.237,1.918,2.885,1.918,4.639 s-0.681,3.401-1.918,4.638c-0.391,0.391-0.391,1.023,0,1.414c0.195,0.195,0.451,0.293,0.707,0.293s0.512-0.098,0.707-0.293 c1.615-1.614,2.504-3.764,2.504-6.052S54.017,8.459,52.401,6.845z"/><path d="M4.802,5.983c0.391-0.391,0.391-1.023,0-1.414s-1.023-0.391-1.414,0c-4.516,4.516-4.516,11.864,0,16.38 c0.195,0.195,0.451,0.293,0.707,0.293s0.512-0.098,0.707-0.293c0.391-0.391,0.391-1.023,0-1.414 C1.065,15.799,1.065,9.72,4.802,5.983z"/><path d="M9.013,6.569c-0.391-0.391-1.023-0.391-1.414,0c-1.615,1.614-2.504,3.764-2.504,6.052s0.889,4.438,2.504,6.053 c0.195,0.195,0.451,0.293,0.707,0.293s0.512-0.098,0.707-0.293c0.391-0.391,0.391-1.023,0-1.414 c-1.237-1.237-1.918-2.885-1.918-4.639S7.775,9.22,9.013,7.983C9.403,7.593,9.403,6.96,9.013,6.569z"/><circle cx="30" cy="53" r="2"/><path d="M42.595,0H17.405C14.976,0,13,1.977,13,4.405v51.189C13,58.023,14.976,60,17.405,60h25.189C45.024,60,47,58.023,47,55.595 V4.405C47,1.977,45.024,0,42.595,0z M33,3h1c0.552,0,1,0.447,1,1s-0.448,1-1,1h-1c-0.552,0-1-0.447-1-1S32.448,3,33,3z M26,3h4 c0.552,0,1,0.447,1,1s-0.448,1-1,1h-4c-0.552,0-1-0.447-1-1S25.448,3,26,3z M30,57c-2.206,0-4-1.794-4-4s1.794-4,4-4s4,1.794,4,4 S32.206,57,30,57z M45,46H15V8h30V46z"/></symbol><symbol id="email" viewBox="0 0 452.84 452.84"><title>email</title><path d="m449.483,190.4l.001-.001-57.824-38.335v-128.134c0-4.142-3.358-7.5-7.5-7.5h-315.49c-4.142,0-7.5,3.358-7.5,7.5v128.143l-57.814,38.326 .001,.002c-2.022,1.343-3.357,3.639-3.357,6.249v232.26c0,4.142 3.358,7.5 7.5,7.5h437.84c4.142,0 7.5-3.358 7.5-7.5v-232.26c0-2.61-1.335-4.906-3.357-6.25zm-388.313,26.229l-23.525-12.479h23.525v12.479zm-46.17-7.511l172.475,91.49-172.475,114.327v-205.817zm211.417,83.671l194.037,128.621h-388.073l194.036-128.621zm38.945,7.82l172.477-91.491v205.821l-172.477-114.33zm126.298-96.459h23.536l-23.536,12.484v-12.484zm28.794-15h-28.794v-19.09l28.794,19.09zm-43.794-157.72v193.161l-125.527,66.586-20.573-13.637c-2.511-1.665-5.776-1.665-8.287,0l-20.57,13.635-125.533-66.589v-193.156h300.49zm-315.49,157.72h-28.782l28.782-19.08v19.08z"/><path d="m226.415,213.671h59.754c4.142,0 7.5-3.358 7.5-7.5s-3.358-7.5-7.5-7.5h-59.754c-28.813,0-52.254-23.441-52.254-52.254v-2.213c0-28.813 23.441-52.254 52.254-52.254s52.254,23.441 52.254,52.254v5.533c0,6.237-5.074,11.312-11.312,11.312s-11.312-5.074-11.312-11.312v-10.512c0-17.864-14.533-32.398-32.397-32.398s-32.397,14.533-32.397,32.398c0,17.864 14.533,32.397 32.397,32.397 8.169,0 15.636-3.045 21.34-8.052 4.644,7.483 12.932,12.478 22.369,12.478 14.508,0 26.312-11.803 26.312-26.312v-5.533c0-37.084-30.17-67.254-67.254-67.254s-67.254,30.17-67.254,67.254v2.213c5.68434e-14,37.085 30.17,67.255 67.254,67.255zm-2.767-57.049c-9.593,0-17.397-7.804-17.397-17.397s7.805-17.398 17.397-17.398 17.397,7.805 17.397,17.398-7.804,17.397-17.397,17.397z"/></symbol><symbol id="planet-earth" viewBox="0 0 208.214 208.214"><title>planet-earth</title><g> <g> <path d="M61.419,7.597c-0.635-1.094-1.843-1.734-3.075-1.698c-4.977,0.189-30.16,1.34-37.052,5.374 c-8.117,4.75-10.873,15.249-6.144,23.402c2.292,3.949,5.977,6.767,10.378,7.933c1.447,0.384,2.915,0.573,4.372,0.573 c2.975,0,5.91-0.789,8.552-2.336c6.89-4.033,20.302-25.47,22.922-29.725C62.035,10.044,62.05,8.689,61.419,7.597z M35.015,34.934 c-2.36,1.379-5.113,1.751-7.753,1.056c-2.64-0.7-4.85-2.389-6.226-4.76c-2.836-4.893-1.184-11.191,3.686-14.041 c3.441-2.014,16.678-3.434,27.329-4.11C46.214,22.053,38.456,32.919,35.015,34.934z"/> </g> </g><g> <g> <path d="M34.498,23.353c-0.949-1.633-3.034-2.183-4.661-1.236L6.282,35.902c-1.626,0.952-2.178,3.048-1.231,4.681 c0.635,1.092,1.777,1.7,2.949,1.7c0.582,0,1.174-0.15,1.712-0.464l23.555-13.785C34.894,27.082,35.445,24.986,34.498,23.353z"/> </g> </g><g> <g> <path d="M33.047,124.586c-2.893-7.465-21.891-24.107-25.672-27.368c-0.952-0.823-2.28-1.051-3.456-0.592 c-1.174,0.457-1.999,1.529-2.149,2.784c-0.587,4.968-3.372,30.135-0.478,37.596c1.65,4.26,4.855,7.62,9.021,9.458 c2.196,0.969,4.521,1.456,6.851,1.456c2.091,0,4.183-0.391,6.192-1.176C32.109,143.318,36.457,133.377,33.047,124.586z M20.881,140.366c-5.262,2.05-11.191-0.565-13.239-5.842c-1.444-3.726-0.782-17.08,0.21-27.756 c7.917,7.187,17.399,16.572,18.845,20.301C28.741,132.346,26.132,138.311,20.881,140.366z"/> </g> </g><g> <g> <path d="M29.533,153.246l-9.893-25.513c-0.684-1.763-2.666-2.632-4.412-1.947c-1.754,0.684-2.623,2.669-1.939,4.43l9.894,25.513 c0.524,1.353,1.811,2.183,3.174,2.183c0.413,0,0.831-0.077,1.237-0.236C29.349,156.992,30.218,155.007,29.533,153.246z"/> </g> </g><g> <g> <path d="M190.706,46.221c-1.655-4.719-10.211-28.535-16.089-33.951c-3.354-3.089-7.712-4.7-12.252-4.487 c-4.545,0.195-8.745,2.159-11.822,5.526c-3.077,3.369-4.664,7.74-4.468,12.307c0.195,4.567,2.149,8.784,5.502,11.875h0.002 c5.878,5.414,30.237,11.93,35.06,13.181c0.283,0.073,0.567,0.109,0.852,0.109c0.942,0,1.857-0.393,2.512-1.108 C190.854,48.741,191.124,47.414,190.706,46.221z M156.187,32.446c-4.156-3.828-4.434-10.336-0.621-14.508 c1.847-2.022,4.366-3.2,7.093-3.318c2.743-0.121,5.337,0.84,7.351,2.693c2.934,2.703,8.207,14.981,12.006,24.999 C171.753,39.372,159.124,35.149,156.187,32.446z"/> </g> </g><g> <g> <path d="M166.836,23.679L146.747,5.168c-1.388-1.28-3.543-1.186-4.814,0.208c-1.273,1.393-1.179,3.557,0.206,4.835l20.089,18.51 c0.655,0.604,1.48,0.901,2.302,0.901c0.922,0,1.84-0.372,2.514-1.109C168.318,27.121,168.224,24.957,166.836,23.679z"/> </g> </g><g> <g> <path d="M197.085,100.218c-8.82-3.277-18.632,1.265-21.893,10.114c-2.768,7.514,0.445,32.628,1.118,37.584 c0.169,1.254,1.014,2.309,2.193,2.749c0.386,0.142,0.785,0.212,1.183,0.212c0.821,0,1.632-0.3,2.266-0.865 c3.722-3.326,22.434-20.291,25.202-27.803C210.414,113.358,205.897,103.491,197.085,100.218z M200.76,119.834 c-1.381,3.75-10.701,13.298-18.497,20.62c-1.174-10.653-2.062-23.994-0.679-27.745c1.524-4.14,5.441-6.707,9.598-6.707 c1.178,0,2.372,0.205,3.534,0.638c2.563,0.951,4.601,2.848,5.743,5.34C201.601,114.474,201.709,117.262,200.76,119.834z"/> </g> </g><g> <g> <path d="M201.14,89.215c-1.768-0.649-3.726,0.251-4.379,2.022l-9.46,25.68c-0.652,1.773,0.251,3.741,2.014,4.398 c0.391,0.143,0.79,0.213,1.183,0.213c1.384,0,2.686-0.857,3.197-2.236l9.46-25.68C203.806,91.84,202.903,89.872,201.14,89.215z"/> </g> </g><g> <g> <path d="M119.437,185.439c-0.377-4.557-2.5-8.692-5.975-11.645c-3.475-2.953-7.89-4.372-12.421-3.989 c-7.95,0.666-29.235,14.23-33.422,16.942c-1.058,0.686-1.654,1.901-1.55,3.161c0.104,1.261,0.891,2.36,2.048,2.86 c4.427,1.913,26.312,11.179,34.929,11.179c0.29,0,0.567-0.01,0.826-0.032c4.536-0.381,8.653-2.512,11.593-6.002 C118.406,194.422,119.814,189.992,119.437,185.439z M110.262,193.494c-1.763,2.094-4.234,3.372-6.955,3.599 c-3.951,0.333-16.527-4.101-26.435-8.09c9.11-5.581,20.767-12.042,24.733-12.373c2.717-0.237,5.369,0.62,7.455,2.393 c2.086,1.771,3.357,4.253,3.584,6.985S112.025,191.4,110.262,193.494z"/> </g> </g><g> <g> <path d="M127.4,181.337l-27.168,2.277c-1.876,0.157-3.27,1.811-3.113,3.695c0.148,1.789,1.638,3.139,3.393,3.139 c0.096,0,0.191-0.003,0.287-0.012l27.168-2.277c1.876-0.157,3.27-1.811,3.113-3.695S129.274,181.174,127.4,181.337z"/> </g> </g><g> <g> <path d="M100.539,29.471c-36.171,0-65.601,29.558-65.601,65.888c0,36.33,29.43,65.888,65.601,65.888 c36.171,0,65.601-29.558,65.601-65.888C166.14,59.029,136.71,29.471,100.539,29.471z M100.539,154.399 c-32.413,0-58.784-26.486-58.784-59.042s26.37-59.042,58.784-59.042c32.415,0,58.784,26.486,58.784,59.042 S132.952,154.399,100.539,154.399z"/> </g> </g><g> <g> <path d="M76.968,58.94c-4.11-4.128-5.337-11.503-5.641-16.961c-0.068-1.205-0.763-2.285-1.828-2.843 c-1.063-0.56-2.343-0.514-3.366,0.121C52.229,47.88,42.076,61.28,37.541,76.992c-0.265,0.913-0.137,1.896,0.35,2.712 c0.488,0.816,1.292,1.391,2.219,1.589c8.293,1.763,9.351,3.717,9.359,3.736c1.811,3.639,4.683,5.948,8.09,6.504 c0.536,0.087,1.08,0.13,1.63,0.13c3.734,0,7.75-1.997,11.482-5.743c0.758-0.761,1.562-1.522,2.374-2.289 c4.139-3.913,8.83-8.351,8.917-14.244C82.015,65.835,80.334,62.321,76.968,58.94z M68.374,78.646 c-0.862,0.814-1.715,1.623-2.521,2.432c-2.652,2.664-5.27,3.994-7.2,3.698c-1.22-0.198-2.258-1.145-3.087-2.809 c-1.389-2.79-4.724-4.883-10.383-6.477c3.859-10.865,10.791-20.323,19.965-27.271c1.102,6.769,3.449,11.988,7.004,15.558 c2.014,2.022,3.023,3.874,2.999,5.504C75.105,72.28,71.683,75.516,68.374,78.646z"/> </g> </g><g> <g> <path d="M106.205,107.97c-1.507-6.052-5.018-10.75-10.153-13.582c-5.644-3.113-12.897-3.668-19.422-1.487 c-10.161,3.403-15.647,7.958-11.604,20.144c2.772,8.349,8.096,9.291,12.377,10.049c1.79,0.317,3.483,0.616,5.079,1.418 c1.64,0.823,1.172,9.289-1.708,17.997c-0.51,1.536,0.123,3.22,1.514,4.038c0.527,0.309,4.262,2.408,8.335,2.408 c1.275,0,2.582-0.205,3.837-0.734c1.893-0.802,4.376-2.661,5.448-6.963c0.954-3.838,2.222-7.076,3.449-10.208 C106.059,124.149,108.61,117.629,106.205,107.97z M97.015,128.545c-1.244,3.18-2.656,6.782-3.719,11.052 c-0.468,1.881-1.227,2.205-1.476,2.313c-0.899,0.381-2.326,0.181-3.661-0.236c1.944-6.902,4.432-19.739-2.627-23.282 c-2.485-1.248-4.854-1.667-6.946-2.038c-3.849-0.679-5.603-0.992-7.091-5.473c-2.297-6.922-1.207-8.637,7.293-11.484 c4.748-1.592,9.979-1.217,13.984,0.992c3.476,1.918,5.774,5.026,6.822,9.243C101.469,117.165,99.601,121.939,97.015,128.545z"/> </g> </g><g> <g> <path d="M161.464,70.93c-5.26-13.227-14.841-24.576-26.977-31.961c-1.331-0.811-3.04-0.611-4.149,0.481 c-15.887,15.604-17.265,21.05-16.515,24.318c0.433,1.889,1.799,3.347,3.746,3.999c5.226,1.749,9.486,3.511,12.172,4.693 c-1.393,2.026-3.901,4.451-7.946,4.451c-16.253,0-25.45,0.305-25.45,6.584c0,2.925,2.768,5.502,10.677,12.121 c2.905,2.432,7.219,6.042,8.252,7.516c0.403,4.504,4.347,17.811,7.262,20.741c2.034,2.041,5.55,3.83,9.288,3.828 c0.985,0,1.985-0.123,2.975-0.399c3.123-0.869,7.253-3.543,9.197-11.346c1.277-5.132,1.58-9.795,1.824-13.542 c0.398-6.135,0.734-8.545,2.693-9.53c2.306-1.159,6.153-4.417,12.889-19.265C161.785,72.768,161.809,71.797,161.464,70.93z M145.465,86.764c-5.642,2.835-6.031,8.844-6.446,15.206c-0.235,3.654-0.505,7.794-1.633,12.327 c-0.633,2.541-1.91,5.716-4.405,6.41c-2.106,0.584-4.608-0.654-5.588-1.635c-1.582-1.886-5.337-14.095-5.337-16.597 c0-2.924-2.767-5.499-10.672-12.117c-2.106-1.761-4.951-4.142-6.752-5.881c4.221-0.719,12.655-0.719,17.162-0.717 c11.767,0,15.669-11.346,15.829-11.829c0.536-1.616-0.193-3.383-1.708-4.146c-0.258-0.128-6.188-3.089-15.201-6.175 c0.638-1.608,3.087-5.91,12.471-15.355c9.419,6.339,16.927,15.409,21.396,25.875C148.667,84.866,145.785,86.604,145.465,86.764z"/> </g> </g></symbol></svg>