<?xml version="1.0" standalone="no"?>
<!DOCTYPE svg PUBLIC "-//W3C//DTD SVG 20010904//EN"
 "http://www.w3.org/TR/2001/REC-SVG-20010904/DTD/svg10.dtd">
<svg version="1.0" xmlns="http://www.w3.org/2000/svg"
 width="250.000000pt" height="250.000000pt" viewBox="0 0 250.000000 250.000000"
 preserveAspectRatio="xMidYMid meet">
<metadata>
Created by potrace 1.11, written by Peter Selinger 2001-2013
</metadata>
<g transform="translate(0.000000,250.000000) scale(0.100000,-0.100000)"
fill="#000000" stroke="none">
<path d="M1200 2427 c47 -79 26 -171 -70 -307 -63 -90 -81 -133 -83 -207 -1
-41 -17 -63 -17 -24 0 10 -12 35 -26 56 -102 150 -343 201 -606 128 -62 -17
-67 -27 -18 -36 33 -7 110 -79 110 -102 0 -8 5 -15 12 -15 6 0 8 -3 5 -6 -3
-4 -2 -15 4 -25 9 -18 24 -86 35 -159 14 -97 78 -185 163 -223 44 -20 143 -26
196 -13 11 2 26 5 33 5 24 2 4 17 -63 50 -109 54 -194 153 -225 261 -11 40
-10 39 38 -36 43 -66 117 -128 207 -172 95 -47 103 -48 116 -15 6 15 12 35 14
44 2 9 8 32 13 50 5 19 8 64 8 102 -1 37 3 67 8 67 5 0 7 -3 3 -6 -16 -16 88
-164 115 -164 5 0 18 -9 30 -20 34 -32 37 -24 16 43 -23 70 -35 130 -33 167 6
106 34 191 73 222 15 11 15 11 5 -2 -18 -25 -33 -94 -34 -161 -1 -89 55 -279
82 -279 26 0 132 66 176 110 74 73 98 129 97 221 -1 66 -6 86 -38 152 -59 123
-203 259 -330 312 l-35 15 19 -33z"/>
<path d="M1113 2328 c-14 -19 -10 -39 8 -51 24 -15 49 -1 49 27 0 32 -38 48
-57 24z"/>
<path d="M924 2242 c-6 -4 -14 -17 -18 -29 -5 -16 -2 -25 13 -32 11 -6 22 -11
25 -11 8 0 36 31 36 40 0 10 -29 40 -38 40 -4 0 -12 -4 -18 -8z"/>
<path d="M1075 2201 c-3 -5 -1 -12 5 -16 5 -3 10 1 10 9 0 18 -6 21 -15 7z"/>
<path d="M1707 2179 c-22 -13 -22 -58 -1 -66 39 -15 73 46 37 65 -12 7 -25 7
-36 1z"/>
<path d="M2070 2150 c-1 -3 -4 -16 -6 -30 -15 -84 -101 -139 -267 -171 -55
-11 -105 -23 -111 -26 -6 -4 -17 -8 -25 -10 -25 -3 -86 -59 -113 -104 -36 -58
-49 -144 -33 -209 3 -14 7 -32 9 -40 5 -26 17 -13 45 47 39 81 119 165 193
202 34 17 71 31 82 31 18 0 16 -3 -9 -16 -88 -46 -162 -128 -211 -232 -14 -31
-29 -64 -34 -73 -4 -9 -5 -20 -2 -26 17 -26 202 -66 240 -52 35 13 34 -8 -1
-22 -41 -17 -101 -71 -138 -126 -17 -24 -28 -43 -25 -43 3 0 39 11 81 25 123
42 247 34 343 -21 52 -31 54 -38 5 -17 -54 23 -192 26 -262 7 -63 -17 -161
-54 -161 -60 0 -11 54 -111 68 -126 8 -10 12 -18 9 -18 -4 0 14 -20 41 -45 56
-55 125 -91 170 -90 17 0 32 -3 32 -7 0 -4 6 -5 13 -3 14 5 65 15 88 18 9 1
46 17 82 36 109 56 227 184 296 318 l21 42 -37 -21 c-46 -28 -125 -29 -185 -2
-24 10 -83 44 -131 76 -49 32 -107 63 -130 69 -45 12 -111 14 -127 4 -5 -3
-10 -2 -10 2 0 5 20 14 44 21 23 8 59 27 79 43 36 29 107 138 107 162 0 7 6
23 13 37 6 14 14 74 15 135 3 86 -1 128 -16 190 -20 77 -39 135 -42 125z"/>
<path d="M1015 2100 c-8 -13 -1 -24 14 -19 6 3 7 10 2 18 -6 10 -10 10 -16 1z"/>
<path d="M1903 2092 c-14 -23 1 -52 27 -52 29 0 44 35 24 54 -20 21 -37 20
-51 -2z"/>
<path d="M963 2052 c-17 -11 1 -36 21 -29 9 4 13 13 10 22 -7 17 -13 18 -31 7z"/>
<path d="M1805 2030 c4 -6 11 -8 16 -5 14 9 11 15 -7 15 -8 0 -12 -5 -9 -10z"/>
<path d="M1614 2009 c-10 -17 13 -36 27 -22 12 12 4 33 -11 33 -5 0 -12 -5
-16 -11z"/>
<path d="M1690 2005 c0 -9 5 -15 11 -13 6 2 11 8 11 13 0 5 -5 11 -11 13 -6 2
-11 -4 -11 -13z"/>
<path d="M398 1936 c-37 -27 -8 -77 31 -56 26 13 27 32 4 53 -15 13 -21 13
-35 3z"/>
<path d="M445 1790 c4 -6 11 -8 16 -5 14 9 11 15 -7 15 -8 0 -12 -5 -9 -10z"/>
<path d="M316 1724 c-25 -25 -15 -52 22 -59 19 -3 42 18 42 39 0 8 -31 36 -40
36 -5 0 -16 -7 -24 -16z"/>
<path d="M472 1681 c4 -13 18 -16 19 -4 0 4 -5 9 -11 12 -7 2 -11 -2 -8 -8z"/>
<path d="M483 1623 c-17 -6 -16 -30 1 -36 8 -3 16 2 19 14 6 21 -1 29 -20 22z"/>
<path d="M2210 1570 c-22 -22 -18 -46 11 -55 42 -14 68 44 29 65 -15 8 -24 6
-40 -10z"/>
<path d="M439 1555 c-82 -22 -160 -68 -234 -140 -69 -66 -155 -184 -155 -210
0 -7 -7 -18 -15 -25 -26 -21 -11 -21 33 0 78 38 167 18 293 -67 117 -80 135
-87 219 -87 62 -1 82 3 115 23 54 32 91 67 127 119 29 43 29 43 6 40 -13 -2
-29 -7 -37 -12 -26 -17 -129 -33 -188 -31 -80 4 -100 8 -157 34 -51 22 -60 40
-10 21 45 -17 160 -19 227 -4 69 16 164 52 173 65 10 17 -61 134 -113 187 -85
85 -179 114 -284 87z"/>
<path d="M2047 1524 c-9 -10 4 -34 19 -34 8 0 14 9 14 20 0 19 -19 27 -33 14z"/>
<path d="M2100 1466 c0 -9 7 -16 16 -16 17 0 14 22 -4 28 -7 2 -12 -3 -12 -12z"/>
<path d="M2210 1404 c0 -8 5 -12 10 -9 6 4 8 11 5 16 -9 14 -15 11 -15 -7z"/>
<path d="M2311 1371 c-23 -23 -19 -47 9 -54 35 -9 55 38 26 62 -12 10 -19 8
-35 -8z"/>
<path d="M160 1135 c-17 -21 -8 -50 17 -53 28 -4 50 32 32 54 -15 18 -33 18
-49 -1z"/>
<path d="M285 1060 c-3 -5 -2 -10 4 -10 5 0 13 5 16 10 3 6 2 10 -4 10 -5 0
-13 -4 -16 -10z"/>
<path d="M640 1016 c-30 -7 -68 -19 -85 -28 -69 -37 -136 -140 -161 -246 -19
-79 -11 -262 15 -346 24 -79 36 -97 39 -59 3 42 48 98 102 127 26 14 93 35
147 46 116 24 144 34 200 72 85 57 129 187 97 288 -6 19 -9 41 -6 49 12 35
-19 -5 -41 -52 -31 -66 -106 -158 -154 -189 -41 -25 -125 -60 -131 -54 -2 3
21 20 52 40 64 41 131 122 174 210 49 100 49 99 -6 118 -97 34 -164 40 -242
24z"/>
<path d="M380 1000 c0 -5 7 -10 15 -10 8 0 15 5 15 10 0 6 -7 10 -15 10 -8 0
-15 -4 -15 -10z"/>
<path d="M1639 980 c-8 -5 -28 -11 -43 -14 -41 -7 -41 -11 1 -31 132 -61 234
-164 257 -261 4 -16 9 -38 12 -49 2 -11 -6 0 -18 26 -13 25 -30 53 -38 62 -23
27 -87 88 -107 102 -40 28 -131 73 -159 79 -28 6 -32 4 -42 -21 -35 -93 -44
-159 -31 -241 19 -126 78 -189 230 -250 89 -35 300 -32 401 7 13 5 28 10 33
11 17 3 40 19 30 20 -52 6 -103 39 -130 84 -10 17 -19 33 -19 36 -1 3 -4 10
-8 15 -9 15 -29 95 -34 135 -13 108 -62 198 -131 244 -41 27 -132 51 -163 43
-11 -3 -20 -1 -22 3 -2 5 -10 5 -19 0z"/>
<path d="M443 973 c-7 -3 -13 -11 -13 -18 0 -20 27 -26 35 -8 7 19 -5 32 -22
26z"/>
<path d="M246 934 c-9 -22 11 -54 34 -54 25 0 41 29 29 52 -12 22 -55 24 -63
2z"/>
<path d="M2006 865 c-3 -9 1 -18 10 -22 19 -7 28 2 21 22 -8 19 -23 19 -31 0z"/>
<path d="M1135 785 c-78 -43 -154 -117 -185 -180 -89 -180 64 -445 337 -583
l41 -21 -16 32 c-18 36 -22 49 -23 92 -1 63 20 114 94 222 65 95 92 174 83
240 -11 79 -60 151 -143 207 -49 34 -55 33 -38 -8 35 -83 49 -207 32 -281 -10
-47 -57 -148 -65 -140 -3 3 0 15 6 28 29 54 33 153 12 251 -13 62 -58 177 -69
175 -3 0 -33 -16 -66 -34z"/>
<path d="M2016 785 c4 -8 10 -12 15 -9 14 8 10 24 -6 24 -9 0 -12 -6 -9 -15z"/>
<path d="M2139 784 c-17 -21 0 -49 31 -49 31 0 48 28 31 49 -8 9 -21 16 -31
16 -10 0 -23 -7 -31 -16z"/>
<path d="M2045 670 c4 -6 11 -8 16 -5 14 9 11 15 -7 15 -8 0 -12 -5 -9 -10z"/>
<path d="M2069 568 c-10 -18 -8 -24 7 -35 10 -7 23 -12 28 -10 17 6 29 34 23
51 -9 23 -44 20 -58 -6z"/>
<path d="M800 465 c0 -8 7 -15 16 -15 14 0 14 3 4 15 -7 8 -14 15 -16 15 -2 0
-4 -7 -4 -15z"/>
<path d="M860 466 c0 -15 24 -28 34 -19 13 14 5 33 -14 33 -11 0 -20 -6 -20
-14z"/>
<path d="M1520 435 c-6 -8 -9 -19 -6 -24 9 -14 36 -2 36 14 0 21 -16 26 -30
10z"/>
<path d="M685 430 c-3 -5 -2 -10 4 -10 5 0 13 5 16 10 3 6 2 10 -4 10 -5 0
-13 -4 -16 -10z"/>
<path d="M555 407 c-13 -19 -13 -23 2 -39 14 -15 19 -16 35 -6 11 7 19 16 19
21 -1 4 -1 13 -1 21 0 24 -39 26 -55 3z"/>
<path d="M1481 381 c-10 -6 -10 -10 -1 -16 13 -8 24 -1 19 14 -3 6 -10 7 -18
2z"/>
<path d="M778 353 c-9 -2 -20 -13 -23 -24 -14 -42 44 -68 65 -30 12 24 -16 60
-42 54z"/>
<path d="M1541 276 c-14 -16 -1 -51 21 -59 33 -11 48 15 39 66 -2 13 -48 8
-60 -7z"/>
<path d="M1420 270 c0 -5 5 -10 10 -10 6 0 10 5 10 10 0 6 -4 10 -10 10 -5 0
-10 -4 -10 -10z"/>
<path d="M1355 186 c-25 -18 -15 -50 16 -54 28 -3 43 16 33 42 -8 21 -30 26
-49 12z"/>
</g>
</svg>
